<?xml version="1.0" encoding="utf-8"?><svg xmlns="http://www.w3.org/2000/svg" xmlns:xlink="http://www.w3.org/1999/xlink"><symbol fill="none" viewBox="0 0 24 24" id="bullhorn" xmlns="http://www.w3.org/2000/svg"><path fill-rule="evenodd" clip-rule="evenodd" d="M20.084 16.932a62.153 62.153 0 000-12.864c-.158-1.525-1.917-2.298-3.147-1.383l-4.104 3.05a7.25 7.25 0 01-4.325 1.432h-3.83c-.69 0-1.25.56-1.25 1.25v4.166c0 .69.56 1.25 1.25 1.25h.625l-.845 3.155a.75.75 0 00.407.874l3.681 1.717a.75.75 0 001.042-.486l1.262-4.712c.014-.05.022-.1.025-.15.697.24 1.358.588 1.958 1.034l4.104 3.05c1.23.915 2.989.142 3.147-1.383zm-1.492-12.71a60.66 60.66 0 010 12.555.478.478 0 01-.76.334l-4.104-3.05a8.75 8.75 0 00-5.22-1.728h-3.58V8.667h3.58a8.75 8.75 0 005.22-1.728l4.104-3.05a.478.478 0 01.76.334zm-9.156 9.67a7.256 7.256 0 00-.928-.059H6.856l-.787 2.936 2.301 1.073 1.031-3.85a.759.759 0 01.035-.1z" fill="#27343F"/></symbol><symbol fill="none" viewBox="0 0 18 18" id="close" xmlns="http://www.w3.org/2000/svg"><path d="M5.47 5.47a.75.75 0 011.06 0L9 7.94l2.47-2.47a.75.75 0 011.06 1.06L10.06 9l2.47 2.47a.75.75 0 11-1.06 1.06L9 10.06l-2.47 2.47a.75.75 0 01-1.06-1.06L7.94 9 5.47 6.53a.75.75 0 010-1.06z" fill="currentColor"/></symbol><symbol fill="none" viewBox="0 0 16 16" id="comment" xmlns="http://www.w3.org/2000/svg"><path fill-rule="evenodd" clip-rule="evenodd" d="M3.062 10.203C1.563 6.525 4.269 2.5 8.24 2.5h.214a5.378 5.378 0 015.379 5.378 5.988 5.988 0 01-5.989 5.989H2.632a.5.5 0 01-.313-.89l1.314-1.056a.167.167 0 00.05-.192l-.621-1.526zM8.24 3.5c-3.262 0-5.484 3.305-4.253 6.326l.621 1.525a1.167 1.167 0 01-.35 1.35l-.206.166h3.792a4.988 4.988 0 004.989-4.989A4.378 4.378 0 008.455 3.5h-.214z" fill="#768B9C"/></symbol><symbol fill="none" viewBox="0 0 24 24" id="facebook" xmlns="http://www.w3.org/2000/svg"><path fill-rule="evenodd" clip-rule="evenodd" d="M10.488 3.788A5.25 5.25 0 0114.2 2.25h2.7a.75.75 0 01.75.75v3.6a.75.75 0 01-.75.75h-2.7a.15.15 0 00-.15.15v1.95h2.85a.75.75 0 01.728.932l-.9 3.6a.75.75 0 01-.728.568h-1.95V21a.75.75 0 01-.75.75H9.7a.75.75 0 01-.75-.75v-6.45H7a.75.75 0 01-.75-.75v-3.6A.75.75 0 017 9.45h1.95V7.5a5.25 5.25 0 011.538-3.712zM14.2 3.75a3.75 3.75 0 00-3.75 3.75v2.7a.75.75 0 01-.75.75H7.75v2.1H9.7a.75.75 0 01.75.75v6.45h2.1V13.8a.75.75 0 01.75-.75h2.114l.525-2.1H13.3a.75.75 0 01-.75-.75V7.5a1.65 1.65 0 011.65-1.65h1.95v-2.1H14.2z" fill="#768B9C"/></symbol><symbol fill="none" viewBox="0 0 24 24" id="instagram" xmlns="http://www.w3.org/2000/svg"><path d="M16 7a1 1 0 112 0 1 1 0 01-2 0z" fill="#768B9C"/><path fill-rule="evenodd" clip-rule="evenodd" d="M12 7.25a4.75 4.75 0 100 9.5 4.75 4.75 0 000-9.5zM8.75 12a3.25 3.25 0 116.5 0 3.25 3.25 0 01-6.5 0z" fill="#768B9C"/><path fill-rule="evenodd" clip-rule="evenodd" d="M17.258 2.833a47.72 47.72 0 00-10.517 0c-2.012.225-3.636 1.81-3.872 3.832a45.922 45.922 0 000 10.67c.236 2.022 1.86 3.607 3.872 3.832 3.467.387 7.05.387 10.517 0 2.012-.225 3.636-1.81 3.873-3.832a45.926 45.926 0 000-10.67c-.237-2.022-1.861-3.607-3.873-3.832zm-10.35 1.49a46.221 46.221 0 0110.183 0c1.33.15 2.396 1.199 2.55 2.517a44.421 44.421 0 010 10.32c-.154 1.318-1.22 2.368-2.55 2.516a46.229 46.229 0 01-10.183 0c-1.33-.148-2.396-1.198-2.55-2.516a44.421 44.421 0 010-10.32c.154-1.318 1.22-2.368 2.55-2.516z" fill="#768B9C"/></symbol><symbol fill="none" viewBox="0 0 389 43" id="logoLarge" xmlns="http://www.w3.org/2000/svg"><g clip-path="url(#fclip0)"><path d="M78.558 8.908c0-1.036.553-1.554 1.66-1.554h12.106v3.352c0 1.036-.513 1.554-1.54 1.554h-6.766v15.414c0 1.039-.514 1.556-1.543 1.555h-3.917V8.907zM103.127 7.342c3.007 0 5.104.597 6.293 1.792 1.188 1.195 1.781 3.188 1.779 5.977 0 2.87-.632 4.902-1.898 6.097-1.265 1.195-3.322 1.793-6.171 1.793h-3.088v4.674c0 1.038-.515 1.556-1.543 1.553H94.58V8.909c0-1.036.514-1.554 1.543-1.554l7.003-.012zm-3.085 4.894v6.118h3.322c1.107 0 1.816-.16 2.126-.477.314-.408.472-1.326.474-2.753 0-1.193-.158-1.99-.474-2.39-.304-.305-1.03-.477-2.126-.477l-3.322-.021zM128.285 7.342v3.364c0 1.036-.514 1.554-1.543 1.554h-7.24v3.218h8.306v3.589c0 1.038-.514 1.556-1.542 1.554h-6.764v3.704h8.783v3.35c0 1.038-.514 1.556-1.543 1.553h-12.697V8.909c0-1.044.555-1.566 1.664-1.566h12.576zM136.713 19.663l7.714-11.477a1.92 1.92 0 011.652-.845h3.796v21.887h-3.796c-1.11 0-1.663-.518-1.661-1.554V17.035l-7.714 11.355a1.631 1.631 0 01-1.543.838h-3.918V7.341h3.918c1.028 0 1.543.518 1.543 1.554l.009 10.768zM151.903 29.229v-3.347c0-1.036.475-1.554 1.425-1.554h1.779l1.069-15.42c.152-1.044.706-1.566 1.662-1.566h10.799c.95 0 1.463.518 1.54 1.554l1.187 15.42h2.734v3.359c0 1.038-.514 1.556-1.54 1.553h-20.655zm8.647-4.895h5.393l-.212-2.606-.775-9.465h-3.559l-.847 12.071zM190.722 7.342v3.364c0 1.036-.514 1.554-1.543 1.554h-7.249v3.218h8.306v3.589c0 1.038-.513 1.556-1.539 1.554h-6.767v3.704h8.792v3.35c0 1.038-.514 1.556-1.543 1.553H176.47V8.909c0-1.036.553-1.554 1.661-1.554l12.591-.012zM202.227 7.342c3.006 0 5.104.597 6.292 1.792 1.189 1.195 1.782 3.188 1.78 5.977 0 2.87-.633 4.902-1.898 6.097-1.265 1.195-3.323 1.793-6.171 1.793h-3.089v4.674c0 1.038-.514 1.556-1.543 1.553h-3.917V8.909c0-1.036.514-1.554 1.542-1.554l7.004-.012zm-3.086 4.894v6.118h3.323c1.107 0 1.816-.16 2.125-.477.314-.408.472-1.326.474-2.753 0-1.193-.158-1.99-.474-2.39-.303-.305-1.029-.477-2.125-.477l-3.323-.021z" fill="#27343F"/><path d="M145.435 0a4.913 4.913 0 01-1.423 3.46 4.84 4.84 0 01-3.436 1.434 4.84 4.84 0 01-3.436-1.433A4.913 4.913 0 01135.717 0h9.718zM72.505 7.342c-1.108 0-1.661.518-1.661 1.554v3.358h5.466V7.342h-3.805zM70.844 15.479v13.75h3.917c1.029 0 1.543-.518 1.543-1.554V15.478h-5.46z" fill="#F89B00"/><path d="M244.747 12.542h-.608V7.996l-2.918 4.546h-.58V6.974h.607v4.528l2.925-4.528h.58l-.006 5.568zM250.347 12.542h-.607v-2.54h-2.733v2.54h-.608V6.974h.608v2.49h2.733v-2.49h.607v5.568zM254.62 12.566h-.607v-.719c-.833-.026-1.44-.23-1.823-.611a2.282 2.282 0 01-.571-1.683 2.214 2.214 0 01.58-1.66c.387-.372.995-.576 1.823-.613v-.51h.607v.523c.82.026 1.422.23 1.807.611a2.207 2.207 0 01.574 1.661 2.297 2.297 0 01-.571 1.686c-.381.38-.988.583-1.822.612l.003.703zm-.607-1.223V7.8c-.661.017-1.122.172-1.385.465-.289.372-.43.839-.395 1.31-.035.47.11.935.407 1.3.269.295.726.45 1.369.465l.004.003zm.607-3.536v3.533c.638-.017 1.092-.172 1.364-.465a1.84 1.84 0 00.406-1.3 1.908 1.908 0 00-.394-1.31c-.264-.293-.722-.448-1.376-.465v.007zM261.967 8.287c.079.485.112.977.097 1.468a7.68 7.68 0 01-.097 1.468 1.615 1.615 0 01-.483.81 2.14 2.14 0 01-2.858 0 1.6 1.6 0 01-.482-.804 7.775 7.775 0 01-.098-1.477 7.743 7.743 0 01.098-1.475c.074-.31.239-.59.473-.804a2.142 2.142 0 012.858 0c.241.215.413.499.492.814zm-.586 2.753c.06-.423.084-.85.073-1.276a7.665 7.665 0 00-.073-1.275 1.19 1.19 0 00-.331-.628 1.451 1.451 0 00-1.98 0 1.187 1.187 0 00-.319.615c-.06.423-.084.85-.073 1.276-.011.426.013.853.073 1.275.044.239.16.458.331.628a1.451 1.451 0 001.98 0 1.19 1.19 0 00.319-.624v.009zM267.406 8.605a1.526 1.526 0 01-.495 1.184c-.352.309-.809.47-1.275.45h-1.519v2.303h-.607V6.974h2.126c.467-.02.925.14 1.278.45a1.53 1.53 0 01.492 1.18zm-.938.823a1.033 1.033 0 00.325-.823 1.034 1.034 0 00-.325-.82 1.303 1.303 0 00-.881-.281h-1.473v2.211h1.473c.318.018.632-.084.881-.284v-.003zM273.483 12.542h-.607V8.308l-1.571 3.365h-.528l-1.594-3.365v4.234h-.608V6.974h.608l1.867 3.943 1.823-3.943h.607l.003 5.568zM279.132 12.542h-.641l-.459-1.257h-2.502l-.471 1.257h-.653l2.108-5.561h.516l2.102 5.56zm-1.288-1.771l-1.063-2.937-1.078 2.937h2.141zM284.674 13.879h-.607v-1.337h-4.012V6.974h.607v5.03h2.712v-5.03h.608v5.03h.683l.009 1.875zM289.937 12.542h-.607V7.996l-2.919 4.546h-.58V6.974h.607v4.528l2.913-4.53h.58l.006 5.57zM295.288 8.287c.079.485.112.977.097 1.468.015.491-.018.983-.097 1.468a1.623 1.623 0 01-.483.814 2.14 2.14 0 01-2.858 0 1.594 1.594 0 01-.473-.804 7.694 7.694 0 01-.097-1.478 7.662 7.662 0 01.097-1.474c.074-.31.239-.59.473-.805a2.14 2.14 0 012.858 0c.238.216.406.498.483.81zm-.586 2.753c.06-.422.084-.85.073-1.276a7.665 7.665 0 00-.073-1.275 1.19 1.19 0 00-.331-.627 1.451 1.451 0 00-1.98 0 1.19 1.19 0 00-.331.627c-.06.422-.084.849-.073 1.275-.011.427.013.854.073 1.276.044.238.16.457.331.627a1.451 1.451 0 001.98 0c.172-.173.286-.395.328-.636l.003.009zM300.767 12.542h-.607v-2.54h-2.733v2.54h-.608V6.974h.608v2.49h2.733v-2.49h.607v5.568zM306.367 12.542h-.607v-2.54h-2.734v2.54h-.607V6.974h.607v2.49h2.734v-2.49h.607v5.568zM311.943 10.902a1.535 1.535 0 01-.486 1.184 1.813 1.813 0 01-1.284.45h-2.148V6.974h.608v2.289h1.536c.471-.024.933.137 1.288.45a1.53 1.53 0 01.486 1.19zm-.938.814a1.031 1.031 0 00.303-.814 1.055 1.055 0 00-.303-.817 1.265 1.265 0 00-.89-.305h-1.479v2.208h1.482c.32.024.638-.074.89-.275l-.003.003zm2.314.82h-.608V6.974h.608v5.562zM319.084 12.542h-.608V7.996l-2.918 4.546h-.58V6.974h.607v4.528l2.912-4.53h.58l.007 5.57zm-.878-6.895c-.043.657-.434.985-1.175.985-.741 0-1.136-.332-1.185-.994h.516a.67.67 0 00.661.591.663.663 0 00.66-.591l.523.009zM326.679 12.542h-.608V7.504h-2.712v5.038h-.607V6.974h3.948l-.021 5.568zM332.039 8.287c.079.485.112.977.097 1.468.015.491-.018.983-.097 1.468a1.623 1.623 0 01-.483.814 2.14 2.14 0 01-2.858 0 1.594 1.594 0 01-.473-.804 7.775 7.775 0 01-.098-1.478 7.744 7.744 0 01.098-1.474c.074-.31.239-.59.473-.805a2.14 2.14 0 012.858 0c.238.216.406.498.483.81zm-.586 2.753c.06-.422.084-.85.073-1.276a7.665 7.665 0 00-.073-1.275 1.19 1.19 0 00-.331-.627 1.451 1.451 0 00-1.98 0 1.19 1.19 0 00-.331.627c-.06.422-.084.849-.073 1.275-.011.427.013.854.073 1.276.044.238.16.457.331.627a1.451 1.451 0 001.98 0c.172-.173.286-.395.328-.636l.003.009zM337.477 8.605a1.526 1.526 0 01-.495 1.184c-.352.309-.808.47-1.275.45h-1.519v2.303h-.607V6.974h2.126c.468-.02.925.14 1.278.45a1.53 1.53 0 01.492 1.18zm-.938.823a1.035 1.035 0 00.325-.823 1.034 1.034 0 00-.325-.82 1.303 1.303 0 00-.881-.281h-1.473v2.211h1.473a1.29 1.29 0 00.881-.284v-.003zM341.981 7.504h-1.658v5.038h-.607V7.504h-1.658v-.53h3.926l-.003.53zM346.561 12.542h-.649l-.459-1.257h-2.502l-.462 1.257h-.653l2.108-5.561h.516l2.101 5.56zm-1.287-1.771l-1.063-2.937-1.078 2.937h2.141zM351.278 12.542h-.607V7.504h-1.947v1.905c0 1.136-.137 1.94-.41 2.414a1.358 1.358 0 01-1.263.71h-.304v-.53h.152a1.01 1.01 0 00.495-.113c.158-.097.287-.236.373-.4.136-.266.224-.554.259-.85.064-.466.094-.935.088-1.405v-2.26h3.155l.009 5.567zM244.337 19.727c.079.485.111.977.097 1.468.014.492-.018.984-.097 1.469a1.623 1.623 0 01-.483.813 2.142 2.142 0 01-2.858 0 1.607 1.607 0 01-.468-.807 7.775 7.775 0 01-.097-1.478 7.825 7.825 0 01.097-1.474c.075-.31.24-.59.474-.805a2.142 2.142 0 012.858 0c.236.218.402.501.477.814zm-.586 2.753c.059-.422.084-.849.073-1.275a7.774 7.774 0 00-.073-1.276 1.198 1.198 0 00-.331-.627 1.453 1.453 0 00-1.981 0c-.171.17-.286.389-.331.627a7.663 7.663 0 00-.072 1.276c-.012.426.013.853.072 1.275.046.235.162.45.331.618a1.454 1.454 0 001.981 0c.17-.17.284-.39.328-.627l.003.01zM251.65 22.367c-.076.477-.318.911-.683 1.224a2.15 2.15 0 01-2.733-.104 1.589 1.589 0 01-.474-.804 7.694 7.694 0 01-.097-1.478 7.742 7.742 0 01.097-1.474c.074-.31.239-.59.474-.805a2.163 2.163 0 012.733-.11c.364.313.605.747.68 1.224h-.629a1.428 1.428 0 00-.467-.842 1.339 1.339 0 00-.89-.306 1.358 1.358 0 00-.99.392 1.19 1.19 0 00-.331.627c-.06.422-.084.85-.073 1.276-.011.426.013.853.073 1.275.044.238.16.457.331.627a1.468 1.468 0 001.886.09c.25-.21.42-.502.48-.824l.613.012zM256.929 23.973h-.608v-5.029h-2.712v5.03h-.607v-5.56h3.948l-.021 5.56zM262.161 23.973h-3.557v-5.558h3.557v.532h-2.946v1.961h2.511v.532h-2.511v2.007h2.946v.526zM268.05 25.316h-.607v-1.343h-4.012v-5.558h.607v5.029h2.712v-5.03h.608v5.03h.683l.009 1.872zM272.547 18.944h-1.649v5.03h-.608v-5.03h-1.67v-.53h3.927v.53zM277.176 23.973h-3.544v-5.558h3.556v.532h-2.949v1.961h2.512v.532h-2.512v2.007h2.946l-.009.526zM281.931 23.973h-.707l-1.391-2.334-1.4 2.334h-.693l1.756-2.85-1.643-2.71h.707l1.273 2.192 1.272-2.193h.708l-1.649 2.71 1.767 2.851zM286.824 23.973h-.607v-2.539h-2.734v2.54h-.607v-5.56h.607v2.49h2.734v-2.49h.607v5.56zM292.586 23.973h-.608v-4.536l-2.918 4.536h-.581v-5.558h.608v4.527l2.918-4.527h.581v5.558zM294.891 23.973h-.608v-5.558h.608v5.558zm3.453 0h-.814l-2.639-2.903 2.453-2.655h.772l-2.512 2.64 2.74 2.918zM302.713 23.973h-3.556v-5.558h3.556v.532h-2.945v1.961h2.511v.532h-2.511v2.007h2.945v.526zM304.573 24.472l-.708.611v-1.795h.708v1.184zM241.288 35.417h-.607v-5.561h.607v5.56zm3.453 0h-.814l-2.63-2.906 2.454-2.655h.771l-2.511 2.64 2.73 2.92zM249.099 31.168c.079.485.111.977.097 1.468.014.491-.018.983-.097 1.468a1.623 1.623 0 01-.483.814 2.142 2.142 0 01-2.858 0 1.603 1.603 0 01-.474-.804 7.775 7.775 0 01-.097-1.478 7.742 7.742 0 01.097-1.474c.075-.31.24-.59.474-.805a2.142 2.142 0 012.858 0c.237.216.405.498.483.81zm-.586 2.753c.059-.422.084-.85.072-1.276a7.664 7.664 0 00-.072-1.275 1.198 1.198 0 00-.331-.627 1.454 1.454 0 00-1.981 0c-.171.17-.286.389-.331.627-.06.422-.084.849-.073 1.275-.011.427.014.853.073 1.276.045.238.16.457.331.627a1.453 1.453 0 001.981 0 1.2 1.2 0 00.331-.636v.009zM255.546 35.417h-.607v-4.215l-1.57 3.364h-.523l-1.594-3.364v4.224h-.607v-5.57h.607l1.868 3.943 1.822-3.943h.607l-.003 5.56zM260.543 30.385h-1.658v5.029h-.608v-5.03h-1.652v-.528h3.918v.529zM265.517 31.486a1.543 1.543 0 01-.495 1.19c-.353.309-.809.47-1.276.45h-1.518v2.288h-.608v-5.558h2.126c.468-.022.926.14 1.279.45a1.54 1.54 0 01.492 1.18zm-.939.823a1.023 1.023 0 00.325-.823 1.02 1.02 0 00-.325-.82 1.303 1.303 0 00-.881-.281h-1.473v2.211h1.473a1.29 1.29 0 00.881-.284v-.003zM270.291 35.417h-.653l-.459-1.257h-2.502l-.459 1.257h-.653l2.108-5.561h.492l2.126 5.56zm-1.3-1.768l-1.063-2.937-1.078 2.937h2.141zM275.15 35.417h-.607v-2.54h-2.733v2.54h-.608v-5.561h.608v2.49h2.733v-2.49h.607v5.56zM280.577 33.808c-.076.477-.318.91-.683 1.223a2.15 2.15 0 01-2.734-.104 1.594 1.594 0 01-.473-.804 7.775 7.775 0 01-.098-1.478 7.743 7.743 0 01.098-1.474c.074-.31.239-.59.473-.805a2.168 2.168 0 012.734-.11c.364.314.605.747.68 1.224h-.629a1.432 1.432 0 00-.47-.823 1.339 1.339 0 00-.89-.306 1.362 1.362 0 00-.99.392c-.172.17-.287.389-.331.627a7.56 7.56 0 00-.073 1.275 7.56 7.56 0 00.073 1.276c.044.238.159.457.331.627a1.468 1.468 0 001.886.089c.25-.21.419-.5.479-.823l.617-.006zM285.476 35.417h-3.544v-5.561h3.544v.532h-2.946v1.96h2.511v.533h-2.511v1.991h2.946v.545zM292.865 35.417h-.608v-4.54l-2.912 4.537h-.58v-5.558h.607v4.53l2.912-4.53h.581v5.56zM295.908 34.872h.501c.482-.734.723-1.785.723-3.153v-1.863h3.131v5.016h.702v1.876h-.607v-1.343h-3.845v1.343h-.608l.003-1.876zm1.191 0h2.56v-4.487h-1.941v1.71a5.467 5.467 0 01-.619 2.777zM305.806 31.168c.079.485.111.977.097 1.468.014.491-.018.983-.097 1.468a1.623 1.623 0 01-.483.814 2.142 2.142 0 01-2.858 0 1.603 1.603 0 01-.474-.804 7.775 7.775 0 01-.097-1.478 7.742 7.742 0 01.097-1.474c.075-.31.24-.59.474-.805a2.142 2.142 0 012.858 0c.237.216.405.498.483.81zm-.586 2.753c.059-.422.084-.85.072-1.276a7.664 7.664 0 00-.072-1.275 1.198 1.198 0 00-.331-.627 1.454 1.454 0 00-1.981 0c-.171.17-.286.389-.331.627a7.663 7.663 0 00-.072 1.275c-.012.427.013.853.072 1.276.045.238.16.457.331.627a1.453 1.453 0 001.981 0c.171-.173.286-.395.328-.636l.003.009zM311.245 31.486a1.525 1.525 0 01-.495 1.19c-.352.309-.809.47-1.276.45h-1.518v2.288h-.607v-5.558h2.125c.468-.022.926.14 1.279.45a1.529 1.529 0 01.492 1.18zm-.938.823a1.033 1.033 0 00.325-.823 1.034 1.034 0 00-.325-.82 1.303 1.303 0 00-.881-.281h-1.476v2.211h1.473c.319.019.634-.083.884-.284v-.003zM316.104 31.168c.079.485.111.977.097 1.468.014.491-.018.983-.097 1.468a1.623 1.623 0 01-.483.814 2.142 2.142 0 01-2.858 0 1.603 1.603 0 01-.474-.804 7.775 7.775 0 01-.097-1.478 7.742 7.742 0 01.097-1.474c.075-.31.24-.59.474-.805a2.142 2.142 0 012.858 0c.237.216.405.498.483.81zm-.587 2.753c.06-.422.085-.85.073-1.276a7.56 7.56 0 00-.073-1.275 1.184 1.184 0 00-.331-.627 1.451 1.451 0 00-1.98 0c-.171.17-.286.389-.331.627-.06.422-.084.849-.073 1.275-.011.427.013.853.073 1.276.044.238.16.457.331.627a1.453 1.453 0 001.98 0c.173-.173.289-.395.331-.636v.009zM317.455 35.417h-.805l2.624-2.922-2.414-2.64h.771l2.342 2.656-2.518 2.906zm3.137 0h-.607v-5.561h.607v5.56zm3.341 0h-.799l-2.517-2.906 2.332-2.655h.771l-2.405 2.64 2.618 2.92zM328.689 35.417h-.607v-2.54h-2.733v2.54h-.608v-5.561h.608v2.49h2.733v-2.49h.607v5.56zM334.04 31.168c.079.485.112.977.097 1.468a7.68 7.68 0 01-.097 1.468 1.623 1.623 0 01-.483.814 2.14 2.14 0 01-2.858 0 1.594 1.594 0 01-.473-.804 7.776 7.776 0 01-.098-1.478 7.743 7.743 0 01.098-1.474c.074-.31.239-.59.473-.805a2.142 2.142 0 012.858 0c.238.216.406.498.483.81zm-.586 2.753c.06-.422.084-.85.073-1.276a7.665 7.665 0 00-.073-1.275 1.19 1.19 0 00-.331-.627 1.453 1.453 0 00-1.98 0 1.19 1.19 0 00-.331.627c-.06.422-.084.849-.073 1.275-.011.427.013.853.073 1.276.044.238.159.457.331.627a1.451 1.451 0 001.98 0 1.19 1.19 0 00.337-.636l-.006.009zM339.683 35.417h-.608v-4.54l-2.912 4.537h-.577v-5.559h.607v4.53l2.913-4.53h.58l-.003 5.562zm-.878-6.895c-.042.656-.434.985-1.175.985-.741 0-1.133-.329-1.175-.985h.516a.663.663 0 001.321 0h.513zM347.446 35.417h-.608v-4.54l-2.912 4.537h-.58v-5.558h.607v4.53l2.913-4.53h.58v5.56zM353.046 35.417h-.608v-2.54h-2.733v2.54h-.607v-5.561h.607v2.49h2.733v-2.49h.608v5.56zM354.084 34.872h.507c.482-.734.723-1.785.723-3.153v-1.863h3.131v5.016h.684v1.876h-.608v-1.343h-3.833v1.343h-.607l.003-1.876zm1.191 0h2.56v-4.487h-1.941v1.71a5.478 5.478 0 01-.619 2.777zM363.781 29.856l-2.077 4.692c-.257.577-.632.866-1.126.866h-.499v-.542h.362a.734.734 0 00.458-.128c.136-.114.24-.26.304-.425l.234-.523-1.892-3.953h.641l1.546 3.289 1.39-3.289.659.013zM368.386 33.808c-.076.477-.319.91-.684 1.223a2.148 2.148 0 01-2.733-.104 1.603 1.603 0 01-.474-.804 7.775 7.775 0 01-.097-1.478 7.742 7.742 0 01.097-1.474c.075-.31.24-.59.474-.805a2.165 2.165 0 012.733-.11c.364.314.606.747.681 1.224h-.629a1.428 1.428 0 00-.471-.823 1.335 1.335 0 00-.89-.306 1.36 1.36 0 00-.99.392c-.171.17-.286.389-.331.627-.06.422-.084.849-.073 1.275-.011.427.013.854.073 1.276.044.238.16.457.331.627a1.472 1.472 0 001.886.089c.25-.21.42-.5.48-.823l.617-.006zM372.995 30.385h-1.658v5.029h-.608v-5.03h-1.658v-.528h3.927l-.003.529zM377.967 31.486a1.543 1.543 0 01-.495 1.19c-.352.309-.809.47-1.276.45h-1.518v2.288h-.608v-5.558h2.126c.468-.022.926.14 1.279.45a1.548 1.548 0 01.492 1.18zm-.939.823a1.023 1.023 0 00.325-.823 1.02 1.02 0 00-.325-.82 1.3 1.3 0 00-.88-.281h-1.473v2.211h1.473c.318.018.631-.083.88-.284v-.003zM383.24 35.417h-.608v-4.54l-2.912 4.537h-.58v-5.558h.607v4.53l2.912-4.53h.581v5.56zM389 35.417h-.607v-4.54l-2.913 4.537h-.58v-5.558h.608v4.53l2.921-4.53h.58l-.009 5.56z" fill="#27343F"/><path d="M179.911 34.031c-.913 0-1.788.365-2.433 1.015a3.476 3.476 0 00-1.008 2.451v4.992h30.369c.913 0 1.788-.365 2.433-1.015a3.476 3.476 0 001.008-2.45V34.03h-30.369z" fill="#F89B00"/><path d="M181.724 35.735h.452v.437h-.452v-.437zm.021 1.196h.401v2.661h-.401v-2.661zM184.041 40.813a1.226 1.226 0 01-.929-.358l.261-.248a.855.855 0 00.656.266.71.71 0 00.566-.23.733.733 0 00.184-.587v-.416a.91.91 0 01-.768.346.954.954 0 01-.662-.238 1.997 1.997 0 010-2.218.97.97 0 01.668-.233.875.875 0 01.768.346v-.306h.395v2.753a1.094 1.094 0 01-.314.832 1.066 1.066 0 01-.828.31l.003-.02zm.058-3.552c-.608 0-.684.499-.684.994 0 .496.088.995.684.995.595 0 .68-.499.68-.995 0-.495-.085-.994-.68-.994zM187.713 37.439a.579.579 0 00-.474-.196.656.656 0 00-.656.713v1.633h-.416v-2.66h.401v.323a.936.936 0 01.768-.358.855.855 0 01.656.248l-.279.297zM190.024 39.59v-.255a.974.974 0 01-.79.288.988.988 0 01-.774-.242.751.751 0 01-.207-.541c0-.465.334-.768.948-.768h.823v-.254c0-.388-.201-.584-.702-.584a.725.725 0 00-.692.306l-.273-.242a1.081 1.081 0 01.968-.394c.735 0 1.097.305 1.097.887v1.805l-.398-.007zm0-1.224h-.769c-.413 0-.607.162-.607.47 0 .31.194.454.629.454a.811.811 0 00.607-.178.61.61 0 00.14-.459v-.287zM193.04 39.59v-.307a.916.916 0 01-.781.352.972.972 0 01-.668-.232 2.077 2.077 0 010-2.26.971.971 0 01.668-.233.906.906 0 01.775.34v-1.5h.401v3.852l-.395-.013zm-.69-2.347c-.607 0-.689.499-.689 1.016s.094 1.015.689 1.015c.596 0 .687-.495.687-1.015 0-.52-.088-1.016-.687-1.016zM194.689 38.363c0 .584.285.917.808.917a.906.906 0 00.719-.306l.274.233a1.279 1.279 0 01-1.002.41c-.723 0-1.197-.422-1.197-1.361 0-.86.428-1.362 1.124-1.362.695 0 1.123.499 1.123 1.288v.178l-1.849.003zm1.363-.734a.717.717 0 00-1.017-.291.717.717 0 00-.264.29c-.058.141-.086.292-.082.444h1.449a1.121 1.121 0 00-.082-.443M198.922 37.439a.587.587 0 00-.474-.196.656.656 0 00-.656.713v1.633h-.389v-2.66h.401v.323a.931.931 0 01.768-.358.86.86 0 01.656.248l-.306.297zM199.578 39.081h-.522v.508h.522v-.508zM202.102 37.439a.584.584 0 00-.474-.196.648.648 0 00-.483.212.66.66 0 00-.173.5v1.634h-.401v-2.66h.401v.323a.931.931 0 01.769-.358.858.858 0 01.656.248l-.295.297zM204.647 39.59v-.307a1.015 1.015 0 01-.774.33.993.993 0 01-.708-.247.975.975 0 01-.279-.746v-1.698h.401v1.64a.618.618 0 00.158.522.605.605 0 00.51.187.629.629 0 00.508-.192.641.641 0 00.145-.239c.03-.09.041-.185.03-.279v-1.64h.401v2.662l-.392.006z" fill="#fff"/><path d="M225.839.147v42.342" stroke="#27343F" stroke-miterlimit="10"/><path d="M36.466 35.154H33.012v.428h5.659v-.428h-2.205z" fill="#F89B00"/><path d="M27.412 30.896a.258.258 0 00.067 0l-.052-.46h-.631c-.023.134-.023.271 0 .405l.607.07M45.983 31.507a.176.176 0 00.176-.177v-1.964h-.145v-1.771l.145-.025v-.688a.162.162 0 00-.046-.115.158.158 0 00-.115-.047l-.826.064a.196.196 0 00-.179.196v.612h.674v1.796h-.674v1.939a.178.178 0 00.176.177l.814.003zm-.027-1.376v-.217-.212V30.131zM43.68 30.018l.608-.138a.24.24 0 00.18-.226v-.263h-.948v.495a.13.13 0 00.048.11.126.126 0 00.116.022M44.465 27.069c0-.061-.027-.101-.073-.101a.14.14 0 00-.064.018l-.644.349a.359.359 0 00-.163.26h.944v-.526zM49.2 29.528l-.052-.058-.046-.049-.021-.021-.067-.07-.082-.09-.073-.079-.036-.04-.058-.06-.143-.15-.118-.123.11.131.118.144.054.068.046.052.073.085.054.061.061.07.06.071.025.028.055.06.052.062.112.131.395.45.057.067.03.034.083.089.09.1.244.27.079.086.252.272.073.08.106.116.304.33.118.122-.11-.131c-.069-.083-.17-.205-.303-.346l-.136-.159-.076-.089-.207-.238-.04-.046-.084-.098-.237-.272-.095-.107-.015-.019-.045-.07-.444-.492-.158-.172M46.918 26.273h.037a.373.373 0 00.27-.125.8.8 0 00.547.278h.033a.364.364 0 00.282-.15.724.724 0 00.538.306h.03a.501.501 0 00.379-.489.507.507 0 00-.379-.49h-.018a.76.76 0 00-.437.23.458.458 0 00-.395-.456h-.018a.77.77 0 00-.413.196.476.476 0 00-.42-.422.337.337 0 00-.097 0c-.23.055-.607.321-.607.593 0 .273.446.511.662.511l.006.018zm1.731-.562a.245.245 0 01.207.159.461.461 0 01-.016.437.236.236 0 01-.19.132c-.143 0-.256-.166-.256-.364 0-.2.116-.364.255-.364zm-.85-.214a.26.26 0 01.222.17.49.49 0 01-.016.466.254.254 0 01-.206.14c-.152 0-.273-.174-.273-.388 0-.214.121-.389.273-.389zm-.608-.031a.52.52 0 01.058.23.518.518 0 01-.073.265v.025a.259.259 0 01-.21.125c-.16 0-.303-.186-.303-.416 0-.23.13-.416.304-.416a.279.279 0 01.237.184" fill="#27343F"/><path d="M48.765 26.203a.25.25 0 010 .05.279.279 0 01-.016.042s0 .021-.02.03l-.022.019h-.027.06a.198.198 0 00.037-.03.259.259 0 00.058-.099.431.431 0 00.02-.125v-.064a.354.354 0 00-.039-.12.208.208 0 00-.03-.042.217.217 0 00-.037-.028h-.063.024l.021.018s0 .019.022.031a.295.295 0 01.015.043.307.307 0 010 .049v.217M47.856 26.194a.083.083 0 01-.027 0 .082.082 0 00.033 0 .14.14 0 00.07-.052.416.416 0 00.073-.248v-.07a.472.472 0 000-.068.308.308 0 00-.054-.11.137.137 0 00-.07-.052.075.075 0 00-.034 0 .079.079 0 01.028 0 .154.154 0 01.042.062.444.444 0 01.027.104v.06a.627.627 0 010 .065.616.616 0 01-.036.226.153.153 0 01-.043.061M47.019 26.023a.083.083 0 01-.028 0 .078.078 0 00.034 0 .149.149 0 00.072-.058.338.338 0 00.052-.117.566.566 0 00.018-.143v-.074a.515.515 0 000-.07.34.34 0 00-.051-.117.146.146 0 00-.073-.058.075.075 0 00-.034 0 .07.07 0 01.028 0c.019.018.034.04.042.065a.522.522 0 01.028.11v.131a.71.71 0 01-.037.242.166.166 0 01-.042.064M43.59 27.794v1.147c0-.129.015-.306.015-.468 0-.162 0-.34-.015-.468v-.153-.058zM45.127 29.152v-.058-.153-.468-.468-.153-.058.211c0 .128 0 .306-.016.468-.015.162 0 .34 0 .468v.211M35.101 30.666h2.84c.1 0 .182-.046.182-.1 0-.056-.082-.102-.182-.102h-4.313c-.1 0-.182.046-.182.101 0 .055.082.101.183.101H35.1zM35.101 31.058h2.752c.097 0 .176-.046.176-.101 0-.055-.08-.101-.176-.101H33.71c-.097 0-.176.046-.176.1 0 .056.08.102.176.102h1.391zM35.102 31.45h2.666c.094 0 .17-.047.17-.102 0-.055-.076-.1-.17-.1h-3.966c-.094 0-.17.045-.17.1 0 .055.076.101.17.101h1.3zM35.102 31.844h2.584c.091 0 .164-.046.164-.101 0-.055-.073-.101-.164-.101h-3.802c-.091 0-.164.046-.164.101 0 .055.073.1.164.1h1.218zM35.102 32.236h2.505c.085 0 .158-.046.158-.101 0-.055-.07-.101-.158-.101h-3.644c-.085 0-.158.046-.158.1 0 .056.07.102.158.102h1.139zM35.102 32.627h2.43c.081 0 .15-.046.15-.1 0-.056-.066-.102-.15-.102h-3.493c-.082 0-.152.046-.152.101 0 .055.066.101.152.101h1.063zM34.109 33.018h3.34c.08 0 .146-.046.146-.1 0-.056-.064-.102-.146-.102h-3.34c-.08 0-.146.046-.146.101 0 .055.064.101.146.101zM37.389 33.211h-3.21c-.076 0-.14.046-.14.101 0 .055.064.101.14.101h3.21c.076 0 .14-.046.14-.1 0-.056-.064-.102-.14-.102zM37.321 33.603h-3.073c-.073 0-.134.046-.134.1 0 .056.061.102.134.102h3.073c.073 0 .134-.046.134-.101 0-.055-.06-.101-.134-.101zM37.257 33.994h-2.94a.103.103 0 00-.127.101.104.104 0 00.081.102.103.103 0 00.047 0h2.945a.103.103 0 00.118-.056.104.104 0 00-.071-.147.103.103 0 00-.047 0M30.947 25.891h9.673c.206 0 .176-.144.16-.22a5.142 5.142 0 00-.95-2.117c-.033-.043-.067-.089-.1-.128a.325.325 0 00-.17-.11 1.062 1.062 0 00-.261-.028h-.177v-.223a.303.303 0 00.25-.306.337.337 0 00-.333-.305.333.333 0 00-.333.305.307.307 0 00.246.306v.229h-.686v-.23a.303.303 0 00.249-.305.337.337 0 00-.333-.305.333.333 0 00-.332.305.308.308 0 00.243.306v.229h-.68v-.23a.303.303 0 00.249-.305.337.337 0 00-.333-.305.333.333 0 00-.333.305.308.308 0 00.243.306v.229h-2.921v-.23a.303.303 0 00.243-.305.337.337 0 00-.333-.305.333.333 0 00-.332.305.307.307 0 00.249.306v.229h-.677v-.23a.303.303 0 00.242-.305.337.337 0 00-.332-.305.333.333 0 00-.333.305.308.308 0 00.25.306v.229h-.678v-.23a.303.303 0 00.246-.305.337.337 0 00-.332-.305.333.333 0 00-.333.305.307.307 0 00.25.306v.229h-.177a1.063 1.063 0 00-.261.028.324.324 0 00-.17.11c-.037.043-.067.085-.1.128a5.147 5.147 0 00-.951 2.108c-.015.073-.049.22.16.22l-.002.003zm8.33-2.337a.184.184 0 01.113 0 .278.278 0 01.09.034c.152.107.276.248.362.413.273.434.401.73.35.804a.14.14 0 01-.113.05c-.169 0-.336-.03-.495-.087a.156.156 0 01-.082-.085c-.018-.055-.27-.945-.27-.951-.021-.08 0-.12.015-.141l.027-.022.003-.015zm-7.556.447a1.17 1.17 0 01.365-.447.282.282 0 01.09-.034.181.181 0 01.113 0l.028.022c.024.021.036.061.015.14 0 0-.252.897-.27.952a.156.156 0 01-.082.085 1.449 1.449 0 01-.496.086.14.14 0 01-.112-.049c-.052-.076.079-.37.35-.804" fill="#27343F"/><path d="M42.773 31.761c.142 0 3.203.175 3.203.175l-2.766-.306v-3.772c0-.272-.049-.59.237-.746l1.242-.67h.018l1.485-.135L36.371.073h-1.176l-2.25 6.011h3.741l.68 1.82h-5.101l-2.248 6.011h9.6l.68 1.82h-10.96l-2.247 6.008h15.458l.68 1.811H39.83c.472.62.797 1.341.95 2.108.015.073.049.22-.16.22h-9.673c-.207 0-.177-.144-.161-.22.154-.767.48-1.488.953-2.108h-5.317l-1.316 3.484c.145.12.245.285.286.468.188.765.407 1.53.607 2.288.11.408.21.816.304 1.224a.51.51 0 00.304.364c.118.049.237.104.376.168l.028-.596c.164.024.303.043.446.076a.174.174 0 01.091.11c.013.073.02.147.021.22.009.11.03.22.064.325v-.514a.72.72 0 00-.057-.288 1.082 1.082 0 01-.025-.483l.738.12v.305c0 .092-.055.104-.121.123-.122.033-.119.036-.122.162 0 .269-.015.538-.03.804a.141.141 0 00.091.162c.11.05.216.101.337.163l.052-.386c.151.007.3.04.44.098a.106.106 0 01.063.086.107.107 0 01-.042.098c-.03.03-.07.048-.1.076-.085.083-.073.208.04.239.112.03.179.15.21.281.1.42.218.835.303 1.257.012.056.027.111.045.165l-1.895-.572 2.257.875c.11.055.198.149.246.263.112.26.162.541.146.823v.037h.999v-.428h-.061a.397.397 0 01-.389-.401l-.09-1.551a.396.396 0 01.19-.407.386.386 0 01.15-.049h2.429l-.033-.162h-2.61c-.024-.015-.042-.034-.045-.049a9.021 9.021 0 01-.033-3.059h-.243a.303.303 0 01-.304-.306v-.107l-.355-.098a.265.265 0 01-.158-.278c.007-.09.007-.18 0-.27a.268.268 0 01.158-.278l.355-.098v-.091a.255.255 0 01-.261-.242v-1.04a.251.251 0 01.261-.242.306.306 0 01.304-.226h.48a.226.226 0 01.145-.138.255.255 0 01.08 0h9.11a.255.255 0 01.08 0 .22.22 0 01.145.138h.48a.303.303 0 01.304.226.251.251 0 01.26.242v1.04a.254.254 0 01-.26.242v.091l.355.098a.264.264 0 01.158.279c-.007.09-.007.18 0 .269a.268.268 0 01-.158.278l-.355.098v.101a.307.307 0 01-.304.306h-.207v-.12h.207a.174.174 0 00.125-.049.176.176 0 00.054-.125v-.064h-.027c-.104.034-.228-.113-.243-.327a2.964 2.964 0 010-.456c.015-.214.14-.36.243-.327h.027v-.055h-.015a.251.251 0 01-.261-.242v-1.04a.254.254 0 01.26-.242.18.18 0 00-.163-.104h-.42v2.56a.216.216 0 01-.16.2.254.254 0 01-.073 0h-9.111a.254.254 0 01-.073 0 .212.212 0 01-.16-.2v-2.55h-.472a.178.178 0 00-.164.104.255.255 0 01.261.242v1.04a.255.255 0 01-.26.24h-.016v.056h.028c.103-.034.227.113.242.327.012.152.012.304 0 .456-.015.214-.14.361-.242.327h-.028v.065a.178.178 0 00.176.174h.262c0-.03.027-.095.09-.095h9.822c.067 0 .085.064.091.095a9.029 9.029 0 01-.015 3.194c0 .018-.021.033-.045.048h-2.612l-.034.163h2.43a.388.388 0 01.34.455l-.091 1.551a.402.402 0 01-.389.401h.055v.428h1.215a2.036 2.036 0 01-.234-.954c0-.881.4-1.475 1.102-1.627l.11-.019c.4-.052.807-.11 1.214-.156a1.312 1.312 0 00-.461-.437 1.691 1.691 0 00-.638-.208.073.073 0 01-.07-.07v-.267a.07.07 0 01.07-.07l.04-.028zm-15.362-.865l-.607-.07a1.175 1.175 0 010-.404h.632l.051.458a.241.241 0 01-.066 0" fill="#F89B00"/><path d="M58.495 38.237l2.5-1.058c.048-.022.079-.101.018-.132a1.88 1.88 0 01-.735-.826c-.58-1.089-.565-2.428-.434-3.621a.056.056 0 000-.025h-.019l-1.066-.248a.072.072 0 00-.06.012.072.072 0 00-.03.056v.305l-2.43.248-.607-.673c-.037-.043-.08-.098-.125-.156a.288.288 0 00-.024-.346l-.052-.058-1.048-1.171v-.416a2.2 2.2 0 000-.306.58.58 0 00-.577-.505h-.467l-.8-.829-.215-.241c-.155-.172-.383-.09-.534.036-.107.107-.24.325-.128.474.155.194.319.38.492.557h-1.263v-1.04h-.173v-1.392a.107.107 0 01.024-.04l.358-.232c.085-.027.13-.12.13-.266 0-.147-.054-.306-.13-.266l-.048.033-.54.37a.497.497 0 00-.22.401v1.364l.213.028h-.364v1.006l.461.04h-.844l-.562-.612v-1.437c0-.245.03-.539-.288-.588l-2.466-.376-.237.019-1.476.113h-.018l-1.243.67c-.285.156-.237.474-.237.746v3.76l2.767.305s-3.064-.174-3.204-.174a.07.07 0 00-.07.07v.267c.001.018.009.035.022.048.012.013.03.021.048.022.224.026.441.097.638.208.187.105.346.256.462.437-.407.046-.814.107-1.215.156l-.11.019c-.701.156-1.102.746-1.102 1.627-.001.333.08.66.234.954h-1.215v-.428h-.055a.396.396 0 00.39-.4l.09-1.551a.393.393 0 00-.34-.456h-2.43l.034-.162h2.609c.024-.016.042-.034.045-.052a9.022 9.022 0 00.018-3.194c0-.03-.027-.095-.09-.095h-9.883c-.067 0-.085.064-.091.095h-.261a.176.176 0 01-.176-.174v-.064h.024c.103.033.228-.114.243-.328a3.015 3.015 0 000-.456c-.015-.214-.14-.36-.243-.327h-.024v-.055h.024a.251.251 0 00.261-.242v-1.04a.255.255 0 00-.261-.241.18.18 0 01.164-.104h.47v2.597a.215.215 0 00.162.199.254.254 0 00.072 0h9.111a.254.254 0 00.073 0 .213.213 0 00.161-.2v-2.554h.471a.178.178 0 01.164.104.251.251 0 00-.261.242v1.04a.255.255 0 00.261.242h.015v.055h-.027c-.103-.034-.228.113-.243.327a2.99 2.99 0 000 .456c.015.214.14.36.243.327h.027v.065a.178.178 0 01-.176.174h-.27l.021.12h.252a.303.303 0 00.304-.307v-.107l.355-.098a.265.265 0 00.158-.278 1.753 1.753 0 010-.27.268.268 0 00-.158-.278l-.355-.098v-.091a.25.25 0 00.26-.242v-1.04a.254.254 0 00-.26-.242.306.306 0 00-.304-.226h-.48a.224.224 0 00-.146-.138.255.255 0 00-.078 0h-9.111a.255.255 0 00-.08 0 .223.223 0 00-.145.138h-.48a.302.302 0 00-.304.226.251.251 0 00-.26.242v1.04a.255.255 0 00.26.242v.091l-.376.104a.265.265 0 00-.158.279c.006.09.006.18 0 .27a.267.267 0 00.158.277l.355.098v.101a.307.307 0 00.304.306h.243a9.016 9.016 0 00.033 3.06c0 .017.021.033.046.051h2.605l.037.162h-2.43a.388.388 0 00-.34.456l.091 1.551a.402.402 0 00.389.4h.06v.429h-.998v-.037a1.806 1.806 0 00-.146-.823.52.52 0 00-.246-.263l-2.257-.875 1.898.572a1.079 1.079 0 01-.048-.165c-.091-.422-.21-.835-.304-1.257-.03-.128-.06-.236-.21-.281-.148-.046-.124-.156-.039-.239.03-.027.07-.049.1-.076a.107.107 0 00-.021-.184 1.296 1.296 0 00-.44-.098l-.052.386c-.124-.059-.228-.114-.337-.163a.14.14 0 01-.091-.162c0-.269.021-.538.03-.804 0-.126 0-.129.122-.162.067-.019.118-.046.121-.123.003-.076 0-.195 0-.306l-.738-.119c-.028.161-.02.326.024.483a.722.722 0 01.055.288v.514a1.41 1.41 0 01-.064-.324c0-.074-.008-.148-.02-.22a.172.172 0 00-.092-.11c-.14-.034-.282-.05-.447-.077l-.027.596c-.14-.06-.258-.119-.376-.168a.504.504 0 01-.304-.364 135.63 135.63 0 01-.304-1.224c-.203-.761-.422-1.529-.607-2.288a.842.842 0 00-.286-.468 1.095 1.095 0 00-.127-.091c-.25-.153-.49-.325-.73-.493a.774.774 0 00-.51-.15h-2.307a.815.815 0 00-.14 0 .376.376 0 00-.325.306c0 .037 0 .073-.018.11l-.268 1.725-.303 1.857a.528.528 0 01-.113.257c-.145.18-.282.367-.422.548-.042.055-.094.107-.14.162-.018-.034-.018-.055 0-.07.1-.202.198-.407.304-.612.071-.136.112-.285.119-.438.018-.284.042-.566.066-.85.092-1.04.189-2.077.28-3.117.055-.636.11-1.27.158-1.906a.489.489 0 00-.06-.239c-.207-.419-.423-.835-.633-1.254l-.543-1.052a.445.445 0 00-.243-.233 62.92 62.92 0 01-1.336-.547 1.158 1.158 0 01-.416-.211c-.695-.706-1.391-1.41-2.09-2.11a.528.528 0 01-.143-.258c-.082-.342-.17-.685-.252-1.028-.042-.168-.048-.174-.218-.192l-1.467-.147c-.24-.025-.48-.058-.72-.061h-2.43a.193.193 0 00-.188.11c-.212.367-.434.73-.647 1.101a.578.578 0 00-.076.236c-.04.51-.07 1.018-.109 1.53a.643.643 0 01-.073.253c-.255.468-.525.93-.793 1.416L7.198 23.43l-1.16 2.061c-.252.45-.508.897-.757 1.35a.168.168 0 01-.173.094l-3.286-.015A.363.363 0 001.58 27c-.505.397-.919.9-1.214 1.472a.565.565 0 00-.125.373c.717.021 1.43.034 2.147.07.717.037 1.422.022 2.126.095-.735.04-1.47.058-2.208.092-.738.034-1.482.028-2.241.08-.018.266-.064.514-.064.758-.01.865.054 1.729.191 2.582.064.453.146.918.225 1.355.028.153.061.306.091.459h8.079c0-.058 0-.104-.022-.15-.063-.346-.133-.691-.194-1.04-.052-.306-.1-.593-.137-.89a15.526 15.526 0 01-.16-2.157 4.1 4.1 0 01.078-.862c.15-.618.455-1.186.884-1.652.163-.201.353-.377.565-.523a.465.465 0 00.085-.095l-.015-.03H8.15a.604.604 0 01-.303-.034l.194-.05c.456-.1.911-.207 1.364-.305a.82.82 0 00.322-.153l2.089-1.53 2.144-1.572a.857.857 0 00.164-.168c.274-.355.544-.71.814-1.065.058-.076.091-.085.17-.033.08.052.14.095.21.14l1.214.777 1.689 1.04a.21.21 0 01.11.144c.02.107.051.214.078.321.241 1.02.482 2.034.723 3.041.037.153.067.306.1.459a.131.131 0 01-.054-.077c-.161-.517-.322-1.034-.477-1.554l-.538-1.798a.384.384 0 00-.179-.23l-.817-.501-1.445-.89-.502-.306-.725.654c-.064.058-.058.089.027.162l.784.658 1.822 1.53a.57.57 0 01.182.33c.112.477.228.951.355 1.422.235.652.32 1.348.252 2.037v.19l-.121 3.16c0 .33-.024.53-.04.863a1.605 1.605 0 00-.938 1.113c-.116.65.014 1.32.364 1.878L1.118 43h31.539a.713.713 0 00.656-.428l.16-.428h4.623l.16.428a.721.721 0 00.657.428h31.545l-11.963-4.763zM51.021 26.27a.33.33 0 01.025-.08.18.18 0 01.033-.048h.018v.018a.237.237 0 00-.018.05.643.643 0 000 .164c0 .055.009.11.024.163a.21.21 0 00.025.049v.015h-.019a.164.164 0 01-.036-.046.352.352 0 01-.03-.076.541.541 0 010-.092.47.47 0 010-.092l-.022-.025zm-19.819 2.252l4.938-.597h-4.974v-.306l2.845-.214h-2.845v-1.098a.082.082 0 01.079-.08h9.074a.076.076 0 01.073.08v.343l-4.98.575h4.98v.306l-2.846.214h2.846v1.104a.08.08 0 01-.079.08h-9.065a.079.079 0 01-.08-.08l.034-.327zM9.542 22.15l-1.315 2.37c-.33.597-.668 1.175-.999 1.787-.112.202-.218.407-.337.612h-.537a.74.74 0 01.045-.122l1.309-2.084 1.604-2.55 1.05-1.668.34-.544.034.015c-.021.046-.04.095-.067.14l-1.13 2.026.003.018zm.835.233l-.03-.022.35-.59c.722-1.224 1.451-2.414 2.165-3.631a.433.433 0 01.48-.263c.135.008.271.008.406 0 .055 0 .107 0 .201.018-1.197 1.53-2.293 3.074-3.569 4.481l-.003.006zm4.365-.777a.435.435 0 01-.143.14.133.133 0 01-.185-.021.833.833 0 01-.155-.23 1.57 1.57 0 010-1.064.648.648 0 01.184-.25.155.155 0 01.177.017.28.28 0 01.137.361c-.064.19-.134.373-.204.563 0 .018 0 .037-.018.08.17-.028.18-.227.343-.257a1.385 1.385 0 01-.143.664l.007-.004zm1.737-1.221l-.128-.049c-.191-.08-.382-.168-.58-.242a.231.231 0 01-.17-.199c-.021-.128-.067-.253-.1-.382 0-.049-.024-.098-.037-.14l.025-.019a.12.12 0 01.042.021l.942.97v.04h.006zm3.325 3.95a.15.15 0 01.152-.073c.02.003.038.01.055.02a.204.204 0 01.112.236c-.04.128-.091.257-.14.382l-.039.11c.128 0 .137-.156.264-.131a.812.812 0 01-.133.51c-.067.105-.183.095-.265 0a1.06 1.06 0 010-1.046l-.006-.009zm-1.154 8.09c0-.098 0-.226.058-.281.058-.055.185-.043.282-.055l1.197-.147c.152-.019.167 0 .176.153l.027.422-1.743.076a1.349 1.349 0 010-.168h.003zm-.124.768a.377.377 0 01.097-.021l1.236.088c.134 0 .149.034.155.184l-1.443-.18a.304.304 0 01-.073-.031l.028-.04zm-.817.826c.087-.015.175-.023.264-.025h1.336c0 .132 0 .138-.115.138H17.75a1.474 1.474 0 01-.16-.018v-.055a.683.683 0 01.136-.052l-.018.012zm-.374.294a.146.146 0 01.11-.043h1.676c.018.003.036.01.052.018a.984.984 0 01-.091.355h-1.85s-.027 0-.046-.028a.639.639 0 01.137-.306l.012.004zm-.21.507h1.899v.358h-1.917l.019-.358zm0 .722c0-.055-.015-.113-.027-.19h1.762c.158 0 .158 0 .176.166 0 .06 0 .125.024.196a.494.494 0 01-.094.018h-1.622c-.176 0-.182 0-.212-.175l-.006-.015zm.192.606c-.03-.08-.064-.153-.103-.254h1.761c.13 0 .137 0 .176.132.018.06.034.122.049.183a.282.282 0 010 .058.987.987 0 01-.103 0h-1.583a.175.175 0 01-.194-.12h-.003zm1.974.44h-1.503a.257.257 0 01-.228-.091.572.572 0 01-.04-.098h1.659c.152 0 .158 0 .197.171a.526.526 0 01-.085 0v.018zm.686-.232a.75.75 0 01-.328-.392 1.684 1.684 0 01.049-1.434c.062-.103.136-.198.219-.285 0-.015.042-.018.097-.04-.037.104-.06.184-.088.26a1.693 1.693 0 00.042 1.291.613.613 0 00.465.404s.027.015.04.025a.362.362 0 01-.496.17zm5.23-4.148c.037-.067.1-.052.143-.043l1.309.306.577.147a.3.3 0 00.136 0c-.464-.233-.944-.425-1.44-.649.053-.043.08-.07.113-.091.034-.022.152-.092.222-.147a.215.215 0 01.234-.022l1.956.817c.066.028.14.043.206.073.067.031.094.05.103.086.07.242.128.483.198.759l-1.847-.578-.088.81-.24-.027.137-.802-1.862-.34c.061-.13.095-.192.146-.305l-.003.006zm-.81 1.933a1.261 1.261 0 01-.162-.018v-.055a.54.54 0 01.119-.05c.1-.015.202-.024.303-.027H25.918a.77.77 0 01.076.062.433.433 0 01-.073.085h-1.5l-.025.003zm1.442.165c-.028.11-.049.211-.082.306 0 .025-.067.05-.1.05h-1.701a.91.91 0 01-.119-.02.512.512 0 01.134-.305.195.195 0 01.14-.052h1.582c.042.003.083.01.124.018l.022.003zm-1.075-7.005a.183.183 0 01.121.18v.132c.037.735.075 1.469.115 2.203a.236.236 0 01-.075.21c-.216.194-.711.613-.711.613l-.04-1.126-.09-2.508.674.306.006-.01zm-.918 4.087l.186.783a.344.344 0 010 .068H21.317c-.167 0-.164 0-.186-.16-.033-.275-.073-.553-.109-.829v-.113h.237l2.299.08h.115c.164 0 .164 0 .2.159l-.027.012zm-2.283-4.402h2.217v3.671h-2.773l.556-3.67zm2.153 6.265h-2.591c-.127 0-.179-.034-.176-.122.003-.089.04-.083.173-.083h2.46c.152 0 .176.034.122.208l.012-.003zm.042 1.59h1.92l-.018.374h-1.92l.018-.373zm.019.796v-.049l-.03-.211h1.764c.158 0 .164 0 .176.168v.193a.28.28 0 01-.064.015h-1.722a.105.105 0 01-.079-.026.107.107 0 01-.036-.075l-.01-.015zm.17.508a2.335 2.335 0 00-.094-.23h1.761a.238.238 0 01.128.016c.024.018.036.052.054.122l.064.239h-1.689c-.115 0-.188-.025-.224-.144v-.003zm1.986.47h-1.519a.229.229 0 01-.23-.097.253.253 0 010-.067H25.814c.152 0 .18 0 .21.162a.72.72 0 01-.088 0l-.003.003zm.835-.366a.562.562 0 01-.228-.276 1.877 1.877 0 01-.109-.373 1.499 1.499 0 01.164-1.01.346.346 0 01.225-.189c-.025.092-.04.153-.058.211-.11.32-.11.668 0 .988a.612.612 0 00.465.462s.024.019.036.025a.336.336 0 01-.355.207.333.333 0 01-.137-.051l-.003.006zm2.223-.413h-.984l-.03-.242-.064-.502c.126.002.252.013.377.034l.404.03.419.034c-.064.129-.11.264-.14.404a.615.615 0 000 .242h.018zm.562.269a.148.148 0 01-.188-.027.796.796 0 01-.14-.22.751.751 0 01-.049-.264c0-.095.015-.19.043-.281a.205.205 0 01.167-.175v.132a2.066 2.066 0 000 .281v.043a.422.422 0 00.203.34c.03.018.067.064.064.092-.003.027-.048.06-.085.079h-.015zm3.529-6.096a.261.261 0 010-.062l-2.093-.611 2.272.458h5.069l2.272-.459-2.093.612c.002.02.002.041 0 .062l-.911 4.178c-.03.14-.1.23-.24.23H34.23c-.14 0-.21-.09-.24-.23l-.908-4.178zm-.322 4.426c-.04.07-.045.104-.134.104h-1.463a.15.15 0 01-.134-.18c0-.071 0-.24.11-.252h.03l1.558.248c.06 0 .063.04.036.086l-.003-.006zm.055-.566h-1.519a.35.35 0 01-.179-.046.32.32 0 01-.146-.245v-.306a.267.267 0 01.061-.201.3.3 0 01.052-.046.391.391 0 01.206-.034.75.75 0 01.331.07l.981.392a.53.53 0 01.304.248c.1.125.054.19-.073.19l-.018-.022zm1.03 7.387l.345-.917h3.238l.346.917h-3.93zm2.89-2.774l.347.918h-2.545l.346-.918h1.852zm-1.518-.918l.346-.917h.468l.346.917h-1.16zm3.468-1.936h-5.673V35.2h5.658l.015.428zm.018-1.921a.53.53 0 01.304-.248l.981-.392a.755.755 0 01.331-.07.393.393 0 01.207.034.263.263 0 01.112.248v.305a.322.322 0 01-.146.245.354.354 0 01-.179.046h-1.519c-.127 0-.17-.064-.072-.19l-.019.022zm.143.743c-.027-.049-.024-.076.037-.086l1.557-.247h.028c.106 0 .103.18.11.25a.151.151 0 01-.074.163.148.148 0 01-.06.018H38.98c-.088 0-.094-.03-.134-.104v.006zm17.25-1.536l-.225.022-.303-.343-.264-.306-.04-.042-.03-.034a.995.995 0 01-.1-.107.098.098 0 01-.019-.055.113.113 0 01.03-.067.125.125 0 01.073-.025c.021.001.04.01.055.024.021.022.043.05.067.077l.03.034.03.033.037.043.662.737-.003.01zm-.74-1.153a.142.142 0 01.045.03.18.18 0 01.02.05.204.204 0 010 .137.634.634 0 00-.081-.073l-.046-.03a.225.225 0 00-.054-.022.19.19 0 00-.164.037.196.196 0 00-.061.171.305.305 0 00.046.104l.063.077a.212.212 0 01-.143-.016.166.166 0 01-.048-.027.154.154 0 01-.021-.05c-.08-.207.26-.51.44-.4l.003.012zm-.982-.37l.267.285.125.131-.115-.14-.28-.33v-.698l.887.99a.509.509 0 00-.462.426l-.425-.474.003-.19zm-2.478-2.575l-.079-.086c-.11-.122 0-.285.085-.38a.379.379 0 01.228-.104c.127 0 .185.095.261.181l.346.385.41.505h-.607l-.167-.183c-.134-.147-.25-.267-.328-.35l-.125-.13.116.14c.076.089.179.217.303.367l.134.156H52.3l-.125-.137-.322-.358.043-.006zm-.374 2.171v-1.07c0-.306.2-.416.44-.447H53.409c.143-.018.288-.018.432 0 .382.092.37.52.355.869V33.095h-.124v-3.059a.443.443 0 00-.438-.437H52.13a.433.433 0 00-.407.43v1.478l-.197-.22-.004-.3zm2.023 2.108l-.121-.138.14-.137.033-.034.057.055.073.07-.033.034a3.241 3.241 0 00-.146.153l-.003-.003zm.04.064h-.025.024zm-1.804.025v-.092l.072-.07.055-.052.112.119.055.055-.146.171-.045-.052a.485.485 0 00-.094-.073l-.01-.006zm.088.156h-.091v-.11a.441.441 0 00.057.073l.034.028v.009zm-.025-.689l.028-.024.151.171-.09.104-.089-.076-.066-.05v-.06l.066-.062v-.003zm-.066.059v-.184l.081.092-.027.027-.057.065h.003zm.267.116l.097.107.058.064-.058.064-.052-.052-.118-.113.097-.098-.024.028zm-.21.006l.08.092-.052.058-.064.076v-.272l.036.049v-.003zm.286.309l.042.037.07.06.03.028h-.097l-.2.022.16-.16-.005.013zm.118.018l-.067-.076v-.015l.064-.031.055.061.079.089-.08.085-.06-.067.01-.046zm.161.046l.067.074-.155.015.091-.083-.003-.006zm-.097-.266l-.07-.08-.07-.08-.164-.183-.155-.17-.045-.053-.024-.027-.028-.031-.03-.034-.03-.033a.923.923 0 01-.1-.107.098.098 0 01-.019-.055.116.116 0 01.03-.068.123.123 0 01.07-.024c.02.001.04.01.055.024l.024.022.037.043.027.03.03.034.037.043.04.045.151.169.024.027.061.07.07.08.033.037.034.036.11.123.039.043.13.147.034.036.164.184.018.021.027.03H52.585l-.103-.115-.194-.215.015.031zm.57-1.738l-.017.019-.146-.147.137-.14.045.045.1.101-.121.122h.003zm.168-.073l.128.125-.143.141-.104-.107-.018-.018.018-.015.122-.123-.003-.003zm-.234.144l-.124.125-.15-.143.131-.129.143.15v-.003zm-.121.223l.124.126-.143.15-.127-.129.149-.147h-.003zm.051-.046l.125-.122.018.018.103.104-.121.12-.125-.12zm.304.05l.124.125-.121.119-.094-.098-.028-.027.122-.12h-.003zm.173.17l.097.098.043.043-.049.05-.076.076-.136-.141.121-.122v-.003zm-.121-.214l.142-.143.082.082.046.043-.073.07-.076.074-.121-.126zm.018-.364l.133-.137.134.131-.079.077-.06.058-.128-.129zm0-.379l.133-.134.15.15-.074.073-.063.061-.146-.15zm.097.196l-.137.134-.1-.1-.048-.046.133-.135.149.147h.003zm-.334-.064l-.128-.126.022-.024.109-.116.13.131-.136.135h.003zm-.052.049l-.136.14-.122-.122.134-.144.124.126zm-.303-.031l-.143-.14.14-.145.13.135-.133.147.006.003zm-.006.089l.121.125-.128.135-.124-.12.024-.024.11-.116h-.003zm.003.345l.148.147-.145.15-.152-.15.13-.128.022-.022-.003.003zm.13.511l-.14.144-.1-.101-.033-.034.146-.14.127.128v.003zm.046.043l.121.125-.137.147-.124-.128.14-.144zm.045-.049l.146-.147.027.028.098.095-.128.125-.018.018-.122-.122-.003.003zm.195.15l.124-.128.14.137-.146.147-.1-.101-.037-.037.019-.018zm.303.058l.091.092.064.064-.152.147-.148-.15.142-.15.003-.003zm.13.052l-.09-.095.073-.076.048-.052.164.162-.118.11-.018.015-.064-.064h.006zm-.005-.349l-.097-.1.076-.077.072-.073.152.146-.057.052-.1.095-.04-.043h-.006zm.006-.379l-.082-.082.06-.062.08-.08.136.132-.067.061-.082.077-.042-.046h-.003zm-.07-.443l.064-.065.073-.073.085.082.057.056-.145.137-.134-.134v-.003zm.143-.224l-.149-.153.021-.021.037-.037.076-.076.082.082.072.074-.082.08-.039.036-.018.015zm-.113-.272l-.04.037-.023.021-.143-.144.018-.021.037-.04.063-.07.14.143-.076.07.024.004zm-.136.107l-.137.131-.134-.134.131-.14.14.14v.003zm-.304-.052l-.137-.135.134-.14.027.03.11.113-.134.138v-.006zm-.049.055l-.112.116-.021.025-.13-.129.03-.03.109-.11.137.137-.013-.009zm-.291-.07l-.03.033-.125-.119.06-.058.089-.089.118.126-.11.11-.002-.003zm-.067.08l-.137.15-.106-.074-.064-.061.064-.062.07-.067.018-.015.122.125.033.003zm-.173.24l.14.148-.11.119-.02.024-.02-.015-.069-.067-.067-.061.067-.065.043-.042.027-.028.009-.012zm.015.377l.122.122-.022.022-.124.132-.07-.068-.058-.055.058-.058.07-.073.024-.025v.003zm-.024.352l.149.153-.14.147-.07-.07-.07-.071.07-.067.07-.068-.01-.024zm-.134.245l.07.08.04.042-.04.04-.07.076-.042.046-.094-.085-.052-.046a.22.22 0 000-.046l.158-.15.04.046-.01-.003zm.01.309l.07-.068.069-.067.03.034.1.107-.133.144-.06-.056-.07-.064-.007-.03zm.31.076l.124.132-.128.137-.137-.128.14-.14zm.17.178l.036.04.097.1-.122.132-.067-.065-.075-.073.127-.131.003-.003zm.084.003l-.04-.04.14-.144.037.037.1.1-.094.096-.049.051-.097-.1h.003zm.192.094l.09-.094.15.146-.089.09-.063.06-.14-.147.052-.055zm.2.193l.088-.089.07.07.076.077-.04.04-.118.12-.125-.135-.015-.016.064-.06v-.007zm.204-.058l-.067-.07.148-.15.15.147-.156.152-.075-.079zm.12-.26l.02-.018.111-.117.082.08.077.073-.143.135-.143-.153h-.003zm.128-.205l-.16-.171.097-.098.057-.058.085.082.092.086h-.016l-.154.144v.015zm-.151-.563l.079-.08.066-.067.119.114.045.042-.078.07-.083.074-.148-.156v.003zm.015-.355l.14-.146.121.113.033.03-.082.074-.075.067-.134-.14-.003.002zm.152-.22l-.055-.058-.085-.086.036-.04.08-.082.154.147-.021.018-.07.064-.04.037zm-.049-.425l-.097-.101.127-.132.167.16-.081.079-.061.058-.058-.058.003-.006zm.036-.327l-.148-.147.14-.147c.042.052.094.11.151.168l-.14.129-.015-.016.012.013zm-.063.04l-.13.122-.144-.144.119-.122.143.15.012-.007zm-.316-.059l-.058-.058-.09-.089.026-.03.116-.129.143.16-.125.116-.012.03zm-.11-.03l.055.058-.067.064-.036.037-.021.021-.052-.049-.06-.058-.031-.03.036-.04.037-.04.06-.064.086.091-.006.01zm-.172-.077l-.04.037-.04.037-.13-.123.018-.021.037-.04.036-.04.027-.03.03-.034.05.055.081.092-.063.058-.007.01zm-.122.113l-.14.138-.124-.12.146-.152.121.128-.003.006zm-.3-.03l-.146-.138.154-.171.119.131.03.03-.155.148H52.5zm-.034.037l-.091.088-.06.061-.07-.067-.052-.049-.019-.015.067-.067.07-.074.018-.018.137.147v-.006zm-.225-.147l-.051.049-.022.021-.048.049-.14-.132.052-.049c.042-.042.082-.088.118-.128l.021.021.073.08.043.046-.043.04-.003.003zm-.094.19l.018.018.07.073.04.043-.04.043-.07.073-.036.037-.152-.147.164-.153.006.012zm-.006.357l.024.025.07.076.037.04-.037.04-.07.076-.033.04-.155-.144.164-.15v-.003zm0 .367l.024.025.07.073.055.055-.055.061-.07.08-.021.024-.164-.153.046-.045.118-.117-.003-.003zm.003.386l.018.018.07.077.034.036-.034.037-.07.076-.036.04-.055-.055-.079-.076.08-.08.072-.073zm-.103.257l.054.058-.14.153a.22.22 0 00-.045-.068l-.052-.058-.03-.033.128-.123.073.083.012-.012zm-.076.348l.021.022.088.092-.1.107-.055-.068a.436.436 0 00.043-.153h.003zm.133.144l.05.052.069.074.018.018-.024.027-.07.077v.015l-.088-.098-.055-.067.11-.1-.01.002zm.131.242l.06-.058.125.122-.112.122-.07-.067-.051-.058.057-.055-.009-.006zm.246.122l.076.074.07.064-.116.125-.057-.058-.088-.089.118-.119-.003.003zm.194.184l.143.134-.06.064-.064.065-.15-.144.12-.125.011.006zm.037-.055l.121-.129.143.144-.124.125-.14-.14zm.304.064l.015.015.133.132-.097.1-.027.028-.152-.156.128-.122v.003zm.094.303l.103-.101.134.131-.131.141-.082-.089-.055-.058.028-.027.003.003zm.136-.138l.122-.12.04-.042.133.128-.034.034-.133.138-.128-.138zm.2-.202l.153-.159.066.064.076.074-.167.156-.13-.138.003.003zm.335.015l.149.138-.022.018a1.93 1.93 0 00-.164.141l-.07-.073-.054-.058.16-.169v.004zm-.018-.064l-.073-.08-.064-.067.137-.146.158.146-.064.056-.097.088.003.003zm-.003-.352l-.07-.076-.08-.086.147-.153.018-.018.14.128.036.034-.137.126-.051.049-.003-.004zm.003-.379l-.088-.092-.08-.085.08-.077.075-.076.165.153.02.018-.175.16h.003zm-.058-.425l-.112-.12.07-.07.078-.076.174.159-.155.135-.046-.05-.01.022zm.058-.343l-.146-.156.036-.036v-.016l.064-.067.021-.021.034.033.14.126h-.019l-.024.021-.088.077-.04.033.022.006zm-.158-.526l.057-.061.08-.086.1.09.075.063-.024.022-.145.131-.146-.159h.003zm-.003-.382l.13-.14c.058.054.116.106.164.143h.016-.016l-.136.125-.161-.171.003.043zm.145-.263l-.103-.095-.064-.058.022-.025.027-.03a.358.358 0 01.24.134l-.091.083-.03.027-.016-.015.016-.021zm-.145-.187l-.025.022-.02-.019-.08-.058H53.645l-.027.024-.021.031zm-.095 0l.019.025.015.018-.155.138-.158-.144.028-.034.045-.055h.173l.046.061-.013-.009zm-.264-.009l-.033.03-.058-.027h.17l-.051.046-.028-.049zm-.03.1l-.128.117-.03.028-.091-.086-.049-.043.043-.049.036-.043.016-.018h.127l.073.089.003.006zm-.237-.094l-.042.037-.049.04-.076-.068-.027-.024h.212l-.018.015zm-.164.01l.067.076-.037.033-.027.025-.04.037-.039.036-.024.022-.03-.03-.131-.12.033-.04.034-.043.021-.027h.146l.027.033v-.003zm-.21-.02l-.039.035-.042.033-.037-.033-.058-.05h.195-.015l-.004.016zm-.13.032l.033.036-.17.156-.07-.064-.072-.067.02-.028.043-.061v-.018h.152l.052.058.012-.012zm-.23-.043l-.07.049-.037.027-.055-.049a.36.36 0 01.094-.018h.076l-.009-.01zm-.116.088a1.536 1.536 0 00-.13.12l-.053.052-.075-.07a.362.362 0 01.197-.172l.052.058.009.012zm-.192.18c-.036.04-.073.083-.097.117l-.018.028v-.05a.357.357 0 01.049-.17l.07.076h-.004zm-.066.148l.112-.098.13.144-.151.168-.067-.064-.073-.068v-.049l.049-.033zm0 .159l.063.07-.027.034-.088.107v-.306l.06.07-.008.025zm-.034.195l.106-.088.03-.028.144.156-.152.166-.076-.07-.067-.062h.018l-.003-.074zm.043.224l.073.076-.116.132-.015.018v-.306l.058.064v.016zm-.034.202l.13-.114.15.157-.11.125-.042.052-.076-.07-.073-.068v-.058l.024-.021-.003-.003zm.04.159l.073.08-.107.128-.027.034v-.306l.064.07-.003-.006zm-.022.223l.122-.113.152.165-.07.08-.073.082-.124-.12-.049-.042v-.024l.036-.034.006.006zm-.006.107l.116.132-.116.134-.024-.024v-.306l.037.043-.013.021zm.013.434a.17.17 0 01.02.05.204.204 0 010 .036v.018a.225.225 0 010 .083l-.039-.04-.02-.015h-.062l-.045-.018a.188.188 0 00-.149.03.27.27 0 00-.046.077.161.161 0 000 .092.195.195 0 000 .045.335.335 0 00.028.05l.04.045.023.03h-.03a.221.221 0 01-.07 0 .2.2 0 01-.042-.017l-.027-.016h-.022a.256.256 0 01.021-.281.486.486 0 01.143-.135.302.302 0 01.198-.058h.036a.135.135 0 01.024.018.151.151 0 01.034.025l-.015-.019zm-.289.588a.42.42 0 00.103-.025l.095.104v.918l-.198.018v-1.015zm1.19.544l.067-.064.067-.064.161.15-.136.15-.152-.166-.006-.006zm.168.233l.1.089h-.021l-.08-.09zm.024-.025l.152-.143.06.055.092.082-.025.028-.063.076h-.122l-.094-.11v.012zm.304.037l.03-.027.064.055h-.143l.052-.043-.003.015zm.048-.058l.143-.132.133.129-.042.049-.167.018-.06-.064h-.007zm.492-.12l.037-.036.142.132-.02.018-.305.034c.052-.043.107-.092.158-.144l-.012-.003zm.2.09l-.13-.144c.055-.059.106-.114.146-.163l.018-.024.033.03v.276l-.048.034-.018-.01zm.058-.328l.028-.037v.068l-.028-.03zm-.021-.024l-.137-.153.089-.101.054-.065.046.043v.242l-.049.034h-.003zm.003-.328l.04-.046v.09l-.04-.044zm.034-.06l-.05.042-.145-.162.049-.052.124-.14.034.03v.281h-.012zM54.06 32l.022-.025v.068l-.03-.034.008-.01zm-.009-.025l-.024.022-.033-.037-.128-.14.16-.175.044.037v.278l-.019.015zm-.018-.34l.037-.039v.08l-.037-.04zm0 0l-.021-.02-.152-.166.143-.144h.015l.033.031v.275l-.045.04.027-.015zm-.01-.336v-.015l.037-.037v.086l-.024-.027-.012-.007zm.037-.055l-.04.034-.157-.177.036-.037.082-.083.022-.021.015-.018.04.033v.226l.002.043zm-.036-.348l.04-.04v.085l-.034-.04-.006-.005zm.006.006l-.124-.144-.034-.037.134-.143.02-.025.031.024h.016v.27l-.046.036.003.019zm.036-.349l-.027-.034.034-.036v.076l-.007-.006zm-.024-.034l-.067-.08-.09-.1.124-.138.015-.018.049.034v.272l-.04.033.01-.003zm-.009-.36l.027-.031v.067l-.027-.037zm0 0v-.019a2.285 2.285 0 00-.152-.174l.028-.028.082-.092a.36.36 0 01.082.224v.064l-.03.027-.01-.003zm-3.107.076h.149-.377v.049l-.042-.046-.015-.018-.016-.019h.304l-.003.034zm-4.37 1.312V26.42l1.29.2.878.134c.152.024.44.018.44.241v1.579l-.075-.086-.085-.095v-1.281a.203.203 0 00-.17-.193l-1.935-.285a.15.15 0 00-.168.087.154.154 0 00-.014.066v2.166c.001.036.014.07.036.098a.176.176 0 00.143.074h1.625l.064.067.115.122h-1.02a3.064 3.064 0 00-.374 0 .523.523 0 00-.477.358c-.051.252-.063.51-.036.765v1.312h-.304l.067-.202zm2.375-4.45v1.201l-.06-.067c-.153-.171-.383-.089-.535.037l-.052.058v-1.101l.629-.168a.112.112 0 01.018.04zm-.647 1.737c.055.07.112.137.17.202h-.173l.003-.202zm-.34-1.53v1.756H46.9a.104.104 0 01-.097-.061.104.104 0 01-.01-.04v-1.468l1.152-.187zm.647 4.564v-.107l-.024-1.508h-.253l-.02 1.511v1.01-1.01l-.022-1.514h-.289v2.475-2.478h-.358 1.843l.064.07h-.164l-.042 2.674-.043-2.674h-.243l-.024 1.506v.107l-.015 1.009-.015-1.01v-.106l-.092-1.564h-.245l-.025 1.505V32.79l-.033-.92zm-5.163-4.249a.431.431 0 01.206-.345l.66-.355a.203.203 0 01.097-.028c.085 0 .142.07.142.172v2.585a.308.308 0 01-.233.305l-.608.138h-.051a.193.193 0 01-.187-.129.197.197 0 01-.01-.079l-.016-2.264zM44.732 30v1.542-.208-.554-.517h-.024l-.666.11.666-.177h.024V30.1h-.024l-1.176.22 1.176-.287h.024v-.028-.896-.896-.78-.764 3.336V30zm.413 1.585a.248.248 0 01-.25-.251v-4.356a.273.273 0 01.247-.266l.826-.064a.23.23 0 01.249.232v4.448a.252.252 0 01-.25.25l-.822.007zm-2.126 2.34a.538.538 0 01.203.021.709.709 0 01.295.18c.018.022.033.05.055.074.026.03.05.061.07.095.039.07.069.145.088.223v.126a1.264 1.264 0 01-.024.33v.037c0 .012-.022.049-.031.073a.88.88 0 01-.036.09c0 .017 0 .042-.025.057a.833.833 0 01-.288.303l-.049.024a.572.572 0 01-.307.064h-.027.027a.565.565 0 00.164-.052h.022a.719.719 0 00.19-.14.745.745 0 00.162-.236.924.924 0 00.082-.348v-.055-.214a1.204 1.204 0 00-.037-.114.717.717 0 00-.027-.085.823.823 0 00-.049-.083c-.018-.027-.033-.061-.051-.085a.792.792 0 00-.125-.126.733.733 0 00-.124-.082.689.689 0 00-.185-.062h-.028.028l.027-.015zm-.331.878v-.11c0-.022 0-.043.018-.061l.027-.052a.405.405 0 01.067-.086.304.304 0 01.08-.055l.039-.019h.036a.177.177 0 01.06 0h.053l-.046.019a.207.207 0 00-.046.027.45.45 0 00-.094.101.33.33 0 00-.018.037.172.172 0 00-.018.037V34.983c.005.012.01.025.018.036a.33.33 0 00.018.037c.014.02.03.04.046.058a.28.28 0 00.048.04c.014.011.03.02.046.027l.046.019h-.05a.148.148 0 01-.06 0h-.04l-.039-.019a.306.306 0 01-.079-.055.402.402 0 01-.067-.085l-.027-.052c0-.019 0-.037-.018-.059a.217.217 0 010-.058V34.802zm3.42 2.517l-.608-.201-.607-.202-.911-.328-.304-.107c-.4-.153-.799-.306-1.197-.47a1.326 1.326 0 01-.495-.432 1.07 1.07 0 01-.146-.254c0-.015 0-.03-.018-.049v-.049l-.063-.196a1.936 1.936 0 01-.046-.205 1.396 1.396 0 01-.018-.21 1.804 1.804 0 010-.209 1.581 1.581 0 01.188-.59c.07-.116.158-.22.261-.306a.827.827 0 01.359-.184.91.91 0 00-.331.215 1.176 1.176 0 00-.222.324 1.484 1.484 0 00-.146.566 1.728 1.728 0 00.021.388c0 .065.028.126.046.19s.042.125.064.187v.045l.018.046.042.086c.128.22.313.403.535.526l1.187.477.608.227.589.226 2.411.881c-.41-.122-.82-.25-1.215-.376l-.002-.016zm-4.128-2.676c0 .046 0 .092.019.138.018.045.018.088.027.131.009.043.021.083.033.122.012.04.022.077.037.108.015.03.045.122.063.158l.028.062-.04-.052-.042-.065a1.408 1.408 0 01-.14-.315c0-.042-.024-.088-.033-.137a2.371 2.371 0 01-.022-.144c-.006-.049 0-.098 0-.147a1.27 1.27 0 010-.14 1.215 1.215 0 01.058-.242l.018-.05.022-.042a.575.575 0 01.036-.067l.037-.055-.025.06a.547.547 0 00-.024.071 1.146 1.146 0 00-.046.202v.398l-.006.006zm2.275.37l.38.104.43.132.426.143.37.135.155.061.2.086s-.148-.028-.364-.086l-.38-.104-.43-.132-.426-.143-.367-.135c-.216-.082-.355-.147-.355-.147s.151.03.373.086h-.012zm-.355-.416l.109.018.285.052.401.089.459.113c.155.043.304.083.455.126l.395.119.277.092.103.036-.11-.018-.285-.055-.4-.089-.46-.113-.455-.125-.395-.12-.276-.091-.103-.037v.003zm0 .645l.09.028.271.082.377.132.267.101.16.061.423.175.364.162.256.122.097.049-.104-.03-.27-.083-.376-.132-.426-.162-.394-.162h-.028l-.364-.162-.255-.123-.08-.04h-.014l.006-.018zm3.058.937a.608.608 0 00.11.244.554.554 0 00.166.144l.07.03h.067-.018a.294.294 0 01-.055 0 .393.393 0 01-.088 0h-.027a.49.49 0 01-.185-.113.614.614 0 01-.167-.285.696.696 0 01-.025-.177.813.813 0 010-.082.616.616 0 01.085-.248.485.485 0 01.076-.098v-.015a.363.363 0 01.046-.034.523.523 0 01.063-.046.445.445 0 01.11-.043.393.393 0 01.088 0 .309.309 0 01.057 0h.046-.018l-.052.016-.073.033-.064.043h-.02l-.034.037a.461.461 0 00-.043.046.613.613 0 00-.106.239.581.581 0 000 .067.75.75 0 000 .076c0 .048.006.095.015.141l-.024.024zm.98.825a.564.564 0 01-.06.055l-.048.034h-.019l-.03.018a.584.584 0 01-.094.043.487.487 0 01-.085.028h-.076a.46.46 0 01-.107 0h-.036.036a.531.531 0 00.1-.025.33.33 0 00.068-.024.559.559 0 00.075-.037l.064-.043h.018l.043-.03.03-.028.025-.03c.047-.047.09-.099.127-.153.046-.072.085-.148.116-.227l.018-.055a1.626 1.626 0 00.085-.526v-.153a1.252 1.252 0 00-.018-.137c0-.022 0-.043-.019-.065-.018-.021 0-.049-.018-.07a1.385 1.385 0 00-.036-.135 1.413 1.413 0 00-.119-.238 1.043 1.043 0 00-.148-.184l-.04-.036-.04-.031a.548.548 0 00-.078-.052.502.502 0 00-.076-.037.339.339 0 00-.067-.024.566.566 0 00-.1-.025h-.052a.45.45 0 01.106 0 .37.37 0 01.076 0 .635.635 0 01.18.073l.048.028.049.037a.947.947 0 01.182.183 1.208 1.208 0 01.212.435c0 .024 0 .049.019.07.018.022 0 .025 0 .04v.034c0 .012 0 .082.018.128s0 .104 0 .156a1.723 1.723 0 01-.034.321c-.012.064-.029.126-.051.187l-.028.073v.04c-.057.13-.137.25-.237.352l-.027.024.049.006zm2.23-2.266l-.796.116-.303.046.303-.015.784-.04v.869h-.043l-.41.052-.413.052h.869v.611l-.936.107h.936v.594l-.96.125-.33.043h.303l.999-.037v.12c-.088.091-.19.167-.304.223a.74.74 0 01-.173.061c-.36.056-.723.09-1.087.101h-.1l-.356.03h-.218l.045-.024h.015c.21-.115.395-.269.547-.453.175-.215.305-.464.383-.73.057-.2.088-.405.09-.612a2.189 2.189 0 00-.017-.239v-.07-.07a2.15 2.15 0 00-.435-.977 1.82 1.82 0 00-1.166-.685l-.455-.095h-.14l-.468-.098-.416-.088-.416-.089-1.3-.275h-.067l-.082-.019-.1-.021c-.224-.046-.455-.107-.686-.153l.686-.086h.149c.34-.033.683-.06 1.02-.064.174.012.345.038.514.08l-1.467.156h-.06.063l1.922-.074.568.104-1.476.166 1.616-.07h.31l.191.036.532.098-.89.098h-.14l-.504.055.504-.022h.143l1.324-.058.644.12.115.02h-.103l-1.537.163 1.573-.061.526-.022c.253.05.492.154.701.306l-1.072.114-.717.076.735-.028 1.06-.04-.027.573zm-.638-4.405l.088.098-.042 2.548-.046-2.646zm.331.37l.08.089-.04 2.242-.04-2.331zm.368 2.383l-.037-2.013.07.08-.033 1.933zm.328.055l-.03-1.695.06.067-.03 1.628zm-.034-1.857l-.258-.287-.076-.086-.249-.275-.085-.095-.17-.19-.07-.076-.024-.028-.03-.034-.03-.033-.332-.389-.054-.058-.052-.058-.192-.211-.063-.07-.064-.07-.115-.13-.067-.073-.064-.07-.203-.23-.08-.085a.172.172 0 01-.039-.135.42.42 0 01.128-.241.379.379 0 01.227-.104c.128 0 .183.095.262.18l.033.037.036.04.037.04.164.18.051.058.025.028.027.03.42.468.063.07.064.07.5.56.162.181.04.043.078.086.1.11.763.85.07.08.07.08.163.183a.397.397 0 00-.233.08.583.583 0 00-.07.048.481.481 0 00-.155.306l-.623-.697-.066-.074-.019-.009zm2.254 9.217a5.267 5.267 0 01-.459-.539l-.045-.07 5.752-2.175.343-.128-.362.122-5.855 2.004a6.66 6.66 0 01-.225-.37l4.152-1.331-4.252 1.14a8.204 8.204 0 01-.793-2.557 9.564 9.564 0 01-.054-.412c0-.077 0-.153-.021-.227-.022-.073 0-.134-.019-.199v-.024-.07-.07-.13-.186-.352-.214c0-.381.025-.762.073-1.14l.413-.044h.137l.197-.018.435-.046h.14l.282-.027h.13l.225-.025h.131l.999-.1.255-.025.607-.061.881-.09h.134l.206-.1h.134l3.383-.346c-.01.098-.02.2-.027.306l-2.992.453h-.127l-.219.033h-.127l-2.263.343 2.332-.266h.128l.225-.025h.127l2.894-.33v.251l-1.892.373-.628.11h-.121l-.213.037h-.121l-.882.153.911-.11h.128l.222-.028h.127l.59-.07 1.867-.263c-.056.91.124 1.82.523 2.64.158.317.39.592.674.801l-2.126.903-1.491.63-4.428 1.875" fill="#27343F"/></g><defs><clipPath id="fclip0"><path fill="#fff" d="M0 0h389v43H0z"/></clipPath></defs></symbol><symbol fill="none" viewBox="0 0 30 26" id="menu" xmlns="http://www.w3.org/2000/svg"><path fill="#768B9C" d="M0 0h6.585v6.585H0zM0 9.512h6.585v6.585H0zM0 19.024h6.585v6.585H0zM11.708 0h6.585v6.585h-6.585zM11.708 9.512h6.585v6.585h-6.585zM11.708 19.024h6.585v6.585h-6.585zM23.415 0H30v6.585h-6.585zM23.415 9.512H30v6.585h-6.585zM23.415 19.024H30v6.585h-6.585z"/></symbol><symbol fill="none" viewBox="0 0 6 4" id="menuArrow" xmlns="http://www.w3.org/2000/svg"><path fill-rule="evenodd" clip-rule="evenodd" d="M5.643.232c.17.171.17.448 0 .619L3.31 3.184a.437.437 0 01-.619 0L.358.851A.438.438 0 01.976.232L3 2.256 5.024.232c.171-.17.448-.17.619 0z" fill="#F89B00"/></symbol><symbol fill="none" viewBox="0 0 6 4" id="menuArrowUp" xmlns="http://www.w3.org/2000/svg"><path fill-rule="evenodd" clip-rule="evenodd" d="M.357 3.768a.438.438 0 010-.619L2.691.816c.17-.171.448-.171.619 0l2.333 2.333a.438.438 0 01-.619.619L3 1.744.976 3.768a.438.438 0 01-.619 0z" fill="#768B9C"/></symbol><symbol fill="none" viewBox="0 0 24 24" id="search" xmlns="http://www.w3.org/2000/svg"><path fill-rule="evenodd" clip-rule="evenodd" d="M14.385 15.446a6.751 6.751 0 111.061-1.06l5.156 5.155a.75.75 0 01-1.061 1.06l-5.156-5.155zM6.46 13.884a5.25 5.25 0 117.429-.005l-.005.005-.004.004a5.25 5.25 0 01-7.42-.004z" fill="#27343F"/></symbol><symbol fill="none" viewBox="0 0 24 24" id="telegram" xmlns="http://www.w3.org/2000/svg"><path fill-rule="evenodd" clip-rule="evenodd" d="M5.788 14.02a.746.746 0 00.132.031 459.637 459.637 0 01.845 2.002c.502 1.202 1.009 2.44 1.12 2.796.139.438.285.736.445.94.083.104.178.196.29.266a.88.88 0 00.186.088c.32.12.612.07.795.009a1.312 1.312 0 00.305-.15L9.91 20l2.826-1.762 3.265 2.502c.048.037.1.068.156.093.392.17.772.23 1.13.182.356-.05.64-.199.85-.368a1.992 1.992 0 00.564-.728l.01-.022.003-.008.001-.004v-.002l.002-.001a.748.748 0 00.039-.133l2.98-15.025a.745.745 0 00.014-.146c0-.44-.165-.859-.555-1.112-.333-.217-.705-.227-.94-.209-.252.02-.486.082-.643.132a3.486 3.486 0 00-.26.094l-.01.005-16.714 6.556-.003.001a2.326 2.326 0 00-.167.069 2.522 2.522 0 00-.38.212c-.226.155-.749.581-.66 1.285.07.56.454.905.688 1.071.128.091.25.156.34.199.04.02.127.054.164.07l.01.003 3.168 1.067zm14.138-9.152h-.002a.78.78 0 01-.025.011L3.165 11.444a.818.818 0 01-.027.01l-.01.003a1.13 1.13 0 00-.09.04.854.854 0 00.086.043l3.142 1.058a.75.75 0 01.16.076l10.378-6.075.01-.005a2.012 2.012 0 01.123-.068 2.05 2.05 0 01.317-.131c.09-.028.357-.107.645-.014a.854.854 0 01.588.689c.041.15.035.297.003.424-.069.275-.262.489-.437.653-.15.14-2.096 2.016-4.015 3.868l-2.613 2.52-.465.45 5.872 4.502a.536.536 0 00.252.04.229.229 0 00.116-.052.494.494 0 00.104-.12v-.001l2.891-14.573a1.842 1.842 0 00-.24.075l-.027.011h-.002zm-8.461 12.394l-1.172-.898-.284 1.805 1.456-.907zm-2.246-2.68l1.165-1.125 2.612-2.522.973-.938-6.52 3.817.035.082a339.318 339.318 0 011.22 2.92l.283-1.8a.747.747 0 01.232-.435z" fill="#768B9C"/></symbol><symbol fill="none" viewBox="0 0 10 14" id="turnUp" xmlns="http://www.w3.org/2000/svg"><path d="M1.53 5.53A.75.75 0 01.47 4.47l4-4a.75.75 0 011.06 0l4 4a.75.75 0 01-1.06 1.06L5.75 2.81v9.69a.75.75 0 01-1.5 0V2.81L1.53 5.53z" fill="currentColor"/></symbol><symbol fill="none" viewBox="0 0 10 14" id="turnUpDark" xmlns="http://www.w3.org/2000/svg"><path d="M1.53 5.53A.75.75 0 01.47 4.47l4-4a.75.75 0 011.06 0l4 4a.75.75 0 01-1.06 1.06L5.75 2.81v9.69a.75.75 0 01-1.5 0V2.81L1.53 5.53z" fill="#768b9c"/></symbol><symbol fill="none" viewBox="0 0 24 24" id="user" xmlns="http://www.w3.org/2000/svg"><path fill-rule="evenodd" clip-rule="evenodd" d="M7.75 7.5a4.25 4.25 0 118.5 0 4.25 4.25 0 01-8.5 0zM12 4.75a2.75 2.75 0 100 5.5 2.75 2.75 0 000-5.5zM8 14.75A2.25 2.25 0 005.75 17v1.188c0 .018.013.034.031.037 4.119.672 8.32.672 12.438 0a.037.037 0 00.031-.037V17A2.25 2.25 0 0016 14.75h-.34a.253.253 0 00-.079.012l-.865.283a8.751 8.751 0 01-5.432 0l-.866-.283a.252.252 0 00-.077-.012H8zM4.25 17A3.75 3.75 0 018 13.25h.34c.185 0 .369.03.544.086l.866.283a7.251 7.251 0 004.5 0l.866-.283c.175-.057.359-.086.543-.086H16A3.75 3.75 0 0119.75 17v1.188c0 .754-.546 1.396-1.29 1.517a40.095 40.095 0 01-12.92 0 1.537 1.537 0 01-1.29-1.517V17z" fill="#27343F"/></symbol><symbol fill="none" viewBox="0 0 10 8" id="views" xmlns="http://www.w3.org/2000/svg"><path fill-rule="evenodd" clip-rule="evenodd" d="M3.125 4a1.875 1.875 0 113.75 0 1.875 1.875 0 01-3.75 0zM5 2.875a1.125 1.125 0 100 2.25 1.125 1.125 0 000-2.25z" fill="#F8F8F8"/><path fill-rule="evenodd" clip-rule="evenodd" d="M1.162 3.323c-.21.302-.287.538-.287.677s.077.375.287.677c.202.292.503.608.884.9.764.587 1.81 1.048 2.954 1.048 1.143 0 2.19-.461 2.954-1.047.38-.293.682-.61.884-.901.21-.302.287-.538.287-.677s-.077-.375-.287-.677a4.187 4.187 0 00-.884-.9C7.19 1.835 6.144 1.374 5 1.374c-1.143 0-2.19.461-2.954 1.047-.38.293-.682.61-.884.901zm.428-1.495C2.455 1.164 3.658.625 5 .625s2.545.539 3.41 1.203c.434.332.792.703 1.044 1.068.246.354.421.743.421 1.104 0 .361-.175.75-.42 1.104-.253.365-.611.736-1.045 1.068-.865.664-2.068 1.203-3.41 1.203s-2.545-.539-3.41-1.203A4.931 4.931 0 01.546 5.104C.3 4.75.125 4.361.125 4c0-.361.175-.75.42-1.104.253-.365.611-.736 1.045-1.068z" fill="#F8F8F8"/></symbol><symbol fill="none" viewBox="0 0 10 8" id="viewsDark" xmlns="http://www.w3.org/2000/svg"><path fill-rule="evenodd" clip-rule="evenodd" d="M3.125 4a1.875 1.875 0 113.75 0 1.875 1.875 0 01-3.75 0zM5 2.875a1.125 1.125 0 100 2.25 1.125 1.125 0 000-2.25z" fill="#768b9c"/><path fill-rule="evenodd" clip-rule="evenodd" d="M1.162 3.323c-.21.302-.287.538-.287.677s.077.375.287.677c.202.292.503.608.884.9.764.587 1.81 1.048 2.954 1.048 1.143 0 2.19-.461 2.954-1.047.38-.293.682-.61.884-.901.21-.302.287-.538.287-.677s-.077-.375-.287-.677a4.187 4.187 0 00-.884-.9C7.19 1.835 6.144 1.374 5 1.374c-1.143 0-2.19.461-2.954 1.047-.38.293-.682.61-.884.901zm.428-1.495C2.455 1.164 3.658.625 5 .625s2.545.539 3.41 1.203c.434.332.792.703 1.044 1.068.246.354.421.743.421 1.104 0 .361-.175.75-.42 1.104-.253.365-.611.736-1.045 1.068-.865.664-2.068 1.203-3.41 1.203s-2.545-.539-3.41-1.203A4.931 4.931 0 01.546 5.104C.3 4.75.125 4.361.125 4c0-.361.175-.75.42-1.104.253-.365.611-.736 1.045-1.068z" fill="#768b9c"/></symbol><symbol fill="none" viewBox="0 0 24 24" id="whatsapp" xmlns="http://www.w3.org/2000/svg"><path d="M8.886 7.17c.183.005.386.015.579.443.128.285.343.81.519 1.238.136.333.249.607.277.663.064.128.104.275.02.448l-.029.058c-.067.14-.115.24-.228.37a9.225 9.225 0 00-.144.17c-.085.104-.17.206-.242.278-.129.128-.262.266-.114.522.148.256.668 1.098 1.435 1.777a6.635 6.635 0 001.903 1.2c.07.03.127.055.17.076.257.128.41.108.558-.064.149-.173.643-.749.816-1.005.169-.256.342-.216.58-.128.237.089 1.503.71 1.76.837l.143.07c.179.085.3.144.352.23.064.109.064.62-.148 1.222-.218.6-1.267 1.176-1.742 1.22l-.136.016c-.435.052-.987.12-2.956-.655-2.425-.954-4.026-3.32-4.35-3.799a2.738 2.738 0 00-.052-.076l-.006-.008c-.147-.197-1.048-1.402-1.048-2.646 0-1.19.586-1.81.854-2.092l.047-.05a.95.95 0 01.687-.32c.173 0 .346 0 .495.005z" fill="#768B9C"/><path fill-rule="evenodd" clip-rule="evenodd" d="M2.184 21.331a.4.4 0 00.487.494l4.607-1.204a10 10 0 004.759 1.207h.005c5.486 0 9.958-4.447 9.958-9.912a9.828 9.828 0 00-2.914-7.011A9.917 9.917 0 0012.042 2c-5.486 0-9.958 4.446-9.958 9.911 0 1.739.458 3.447 1.33 4.954l-1.23 4.466zm2.677-4.068a1.5 1.5 0 00-.148-1.15 8.377 8.377 0 01-1.129-4.202c0-4.63 3.793-8.411 8.458-8.411 2.27 0 4.387.877 5.986 2.468a8.328 8.328 0 012.472 5.948c0 4.63-3.793 8.412-8.458 8.412h-.005a8.5 8.5 0 01-4.044-1.026 1.5 1.5 0 00-1.094-.132l-2.762.721.724-2.628z" fill="#768B9C"/></symbol><symbol fill="none" viewBox="0 0 24 24" id="youtube" xmlns="http://www.w3.org/2000/svg"><path fill-rule="evenodd" clip-rule="evenodd" d="M10.386 8.357A.75.75 0 009.25 9v6a.75.75 0 001.136.643l5-3a.75.75 0 000-1.286l-5-3zM13.542 12l-2.792 1.675v-3.35L13.542 12z" fill="#768B9C"/><path fill-rule="evenodd" clip-rule="evenodd" d="M17.03 4.641a64.499 64.499 0 00-10.06 0l-2.241.176a2.975 2.975 0 00-2.703 2.475 28.565 28.565 0 000 9.416 2.975 2.975 0 002.703 2.475l2.24.176c3.35.262 6.713.262 10.062 0l2.24-.176a2.975 2.975 0 002.703-2.475c.52-3.117.52-6.299 0-9.416a2.975 2.975 0 00-2.703-2.475l-2.24-.176zM7.087 6.137a62.998 62.998 0 019.828 0l2.24.175c.676.053 1.229.56 1.34 1.228a27.067 27.067 0 010 8.92 1.475 1.475 0 01-1.34 1.228l-2.24.175c-3.271.256-6.557.256-9.828 0l-2.24-.175a1.475 1.475 0 01-1.34-1.228 27.065 27.065 0 010-8.92 1.475 1.475 0 011.34-1.228l2.24-.175z" fill="#768B9C"/></symbol></svg>