<svg width="195" height="266" viewBox="0 0 195 266" fill="none" xmlns="http://www.w3.org/2000/svg">
<path opacity="0.4" fill-rule="evenodd" clip-rule="evenodd" d="M125.927 0.817858C129.647 2.42449 132.062 6.12953 132.062 10.231V105.693H184.914C188.501 105.693 191.817 107.625 193.625 110.768C195.433 113.91 195.46 117.79 193.695 120.957L187.078 132.836C161.981 177.888 129.976 218.601 92.2629 253.447L81.5646 263.332C78.6119 266.061 74.3502 266.764 70.6966 265.127C67.0431 263.49 64.6862 259.82 64.6862 255.769V161.116H10.0862C4.51575 161.116 0 156.536 0 150.885C0 149.055 0.473721 147.337 1.30357 145.851C24.9563 101.498 55.2388 61.1279 91.0746 26.1766L114.985 2.85634C117.9 0.0135754 122.206 -0.788777 125.927 0.817858ZM27.3616 140.655H74.7724C80.3429 140.655 84.8586 145.235 84.8586 150.885V232.505C117.385 201.327 145.264 165.502 167.611 126.155H121.976C116.405 126.155 111.89 121.574 111.89 115.924V34.2612L105.056 40.9259C74.7872 70.4479 48.6534 104.005 27.3616 140.655Z" fill="#E0E0E0"/>
</svg>
