<svg width="33" height="33" viewBox="0 0 33 33" fill="none" xmlns="http://www.w3.org/2000/svg">
<path d="M11.6457 11.6458C12.0484 11.243 12.7014 11.243 13.1041 11.6458L16.4999 15.0416L19.8957 11.6458C20.2984 11.2431 20.9514 11.2431 21.3541 11.6458C21.7569 12.0485 21.7569 12.7015 21.3541 13.1042L17.9583 16.5L21.3541 19.8958C21.7568 20.2985 21.7568 20.9515 21.3541 21.3542C20.9514 21.7569 20.2984 21.7569 19.8957 21.3542L16.4999 17.9584L13.1041 21.3542C12.7014 21.7569 12.0484 21.7569 11.6457 21.3542C11.243 20.9515 11.243 20.2985 11.6457 19.8958L15.0415 16.5L11.6457 13.1042C11.243 12.7015 11.243 12.0485 11.6457 11.6458Z" fill="#768B9C"/>
<path fill-rule="evenodd" clip-rule="evenodd" d="M10.0604 5.18204C14.3058 4.70755 18.694 4.70755 22.9394 5.18204C25.4506 5.46271 27.4786 7.44084 27.774 9.96666C28.2817 14.3074 28.2817 18.6926 27.774 23.0333C27.4786 25.5592 25.4506 27.5373 22.9394 27.818C18.694 28.2924 14.3058 28.2924 10.0604 27.818C7.54914 27.5373 5.52116 25.5592 5.22574 23.0333C4.71805 18.6926 4.71805 14.3074 5.22574 9.96666C5.52116 7.44084 7.54914 5.46271 10.0604 5.18204ZM22.7103 7.23177C18.6171 6.7743 14.3826 6.7743 10.2895 7.23177C8.71591 7.40764 7.45634 8.64961 7.27428 10.2063C6.7852 14.3878 6.7852 18.6122 7.27428 22.7937C7.45634 24.3504 8.71591 25.5924 10.2895 25.7682C14.3826 26.2257 18.6171 26.2257 22.7103 25.7682C24.2839 25.5924 25.5434 24.3504 25.7255 22.7937C26.2146 18.6122 26.2146 14.3878 25.7255 10.2063C25.5434 8.64961 24.2839 7.40764 22.7103 7.23177Z" fill="#768B9C"/>
</svg>
