<svg width="24" height="24" viewBox="0 0 24 24" fill="none" xmlns="http://www.w3.org/2000/svg">
<path fill-rule="evenodd" clip-rule="evenodd" d="M20.0843 16.9324C20.5293 12.6557 20.5293 8.34435 20.0843 4.06765C19.9256 2.5426 18.1673 1.77009 16.9367 2.68481L12.8331 5.73522C11.5826 6.66473 10.066 7.16668 8.50791 7.16668H4.67871C3.98836 7.16668 3.42871 7.72632 3.42871 8.41668V12.5833C3.42871 13.2737 3.98835 13.8333 4.67871 13.8333H5.30299L4.45763 16.9883C4.36343 17.3398 4.53524 17.7083 4.86511 17.8621L8.54625 19.5787C8.74718 19.6724 8.97926 19.6724 9.18018 19.5787C9.38111 19.485 9.53029 19.3072 9.58767 19.0931L10.8504 14.3806C10.8638 14.3306 10.8718 14.2804 10.8748 14.2306C11.5722 14.4715 12.2333 14.819 12.8331 15.2648L16.9367 18.3152C18.1673 19.2299 19.9256 18.4574 20.0843 16.9324ZM18.5924 4.22288C19.0266 8.39637 19.0266 12.6037 18.5924 16.7771C18.554 17.1458 18.129 17.3325 17.8316 17.1114L13.7279 14.061C12.2188 12.9391 10.3884 12.3333 8.5079 12.3333L4.92871 12.3333L4.92871 8.66668H8.50791C10.3884 8.66668 12.2188 8.06088 13.7279 6.93905L17.8316 3.88864C18.129 3.66755 18.554 3.85427 18.5924 4.22288ZM9.43566 13.8929C9.12927 13.8534 8.81941 13.8333 8.5079 13.8333H6.8559L6.0694 16.7686L8.37012 17.8415L9.40147 13.9924C9.41069 13.958 9.42215 13.9248 9.43566 13.8929Z" fill="#27343F"/>
</svg>
