<svg width="12" height="12" viewBox="0 0 12 12" fill="none" xmlns="http://www.w3.org/2000/svg">
<path d="M6.375 3.5C6.375 3.29289 6.20711 3.125 6 3.125C5.79289 3.125 5.625 3.29289 5.625 3.5V6C5.625 6.1293 5.69161 6.24947 5.80125 6.318L7.30125 7.2555C7.47688 7.36527 7.70823 7.31188 7.818 7.13625C7.92777 6.96062 7.87438 6.72927 7.69875 6.6195L6.375 5.79216V3.5Z" fill="#768B9C"/>
<path fill-rule="evenodd" clip-rule="evenodd" d="M6 1.625C3.58375 1.625 1.625 3.58375 1.625 6C1.625 8.41625 3.58375 10.375 6 10.375C8.41625 10.375 10.375 8.41625 10.375 6C10.375 3.58375 8.41625 1.625 6 1.625ZM2.375 6C2.375 3.99797 3.99797 2.375 6 2.375C8.00203 2.375 9.625 3.99797 9.625 6C9.625 8.00203 8.00203 9.625 6 9.625C3.99797 9.625 2.375 8.00203 2.375 6Z" fill="#768B9C"/>
</svg>
