<svg width="18" height="18" viewBox="0 0 18 18" fill="none" xmlns="http://www.w3.org/2000/svg">
<path d="M5.46943 5.46966C5.76232 5.17677 6.23719 5.17677 6.53009 5.46966L8.99976 7.93934L11.4694 5.46967C11.7623 5.17678 12.2372 5.17678 12.5301 5.46967C12.823 5.76256 12.823 6.23744 12.5301 6.53033L10.0604 9L12.5301 11.4697C12.823 11.7626 12.823 12.2374 12.5301 12.5303C12.2372 12.8232 11.7623 12.8232 11.4694 12.5303L8.99976 10.0607L6.53009 12.5303C6.2372 12.8232 5.76233 12.8232 5.46943 12.5303C5.17654 12.2374 5.17654 11.7626 5.46943 11.4697L7.9391 9L5.46943 6.53032C5.17653 6.23743 5.17653 5.76255 5.46943 5.46966Z" fill="currentColor"/>
</svg>
