<svg width="16" height="16" viewBox="0 0 16 16" fill="none" xmlns="http://www.w3.org/2000/svg">
<path fill-rule="evenodd" clip-rule="evenodd" d="M3.06154 10.2028C1.56296 6.5245 4.26903 2.5 8.24091 2.5H8.45519C11.4256 2.5 13.8336 4.90801 13.8336 7.87843C13.8336 11.1856 11.1526 13.8667 7.84538 13.8667H2.63186C2.41969 13.8667 2.23062 13.7328 2.16021 13.5326C2.08979 13.3325 2.15335 13.1097 2.31878 12.9768L3.63311 11.9213C3.69058 11.8751 3.71091 11.7967 3.6831 11.7285L3.06154 10.2028ZM8.24091 3.5C4.97922 3.5 2.75701 6.8049 3.98763 9.82553L4.60919 11.3512C4.80386 11.829 4.66155 12.3779 4.25927 12.701L4.05298 12.8667H7.84538C10.6003 12.8667 12.8336 10.6334 12.8336 7.87843C12.8336 5.46029 10.8733 3.5 8.45519 3.5H8.24091Z" fill="#768B9C"/>
</svg>
