<svg width="21" height="21" viewBox="0 0 21 21" fill="none" xmlns="http://www.w3.org/2000/svg">
<circle cx="10.5" cy="10.5" r="10.5" fill="#F89B00"/>
<path d="M11.1576 11.9199V12.3539H9.46358V11.3879C9.46358 11.0705 9.50091 10.8139 9.57558 10.6179C9.65024 10.4125 9.79491 10.2119 10.0096 10.0159L10.6396 9.41387C10.9849 9.0872 11.2182 8.8212 11.3396 8.61587C11.4702 8.41053 11.5356 8.1632 11.5356 7.87387C11.5356 7.56587 11.4329 7.31853 11.2276 7.13187C11.0316 6.9452 10.7749 6.85187 10.4576 6.85187C10.1402 6.85187 9.87891 6.93587 9.67358 7.10387C9.47758 7.27187 9.37491 7.5052 9.36558 7.80387H7.51758C7.51758 6.9732 7.79291 6.33387 8.34358 5.88587C8.90358 5.43787 9.60824 5.21387 10.4576 5.21387C11.3349 5.21387 12.0582 5.44253 12.6276 5.89987C13.2062 6.36653 13.4956 7.0292 13.4956 7.88787C13.4956 8.3732 13.3789 8.8212 13.1456 9.23187C12.9216 9.64253 12.5716 10.0812 12.0956 10.5479L11.6336 10.9959C11.4002 11.2385 11.2649 11.4205 11.2276 11.5419C11.1902 11.6352 11.1669 11.7612 11.1576 11.9199ZM11.2696 14.9999H9.35158V13.0959H11.2696V14.9999Z" fill="#F9FCFF"/>
</svg>
