<svg width="94" height="94" viewBox="0 0 94 94" fill="none" xmlns="http://www.w3.org/2000/svg">
<rect x="21" y="20" width="69.7651" height="69.7651" rx="20" fill="url(#paint0_linear_1189:8999)"/>
<g filter="url(#filter0_d_1189:8999)">
<path d="M50.7173 40.2058C48.2606 39.9314 45.7219 39.9314 43.2652 40.2058C41.6847 40.3823 40.4068 41.626 40.2204 43.2185C39.9265 45.7292 39.9265 48.2655 40.2204 50.7762C40.4068 52.3687 41.6847 53.6124 43.2652 53.7889C45.7219 54.0633 48.2606 54.0633 50.7173 53.7889C52.2977 53.6124 53.5757 52.3687 53.7621 50.7762C54.056 48.2655 54.056 45.7292 53.7621 43.2185C53.5757 41.626 52.2977 40.3823 50.7173 40.2058Z" fill="#F8F8F8"/>
</g>
<rect x="59" y="41" width="12" height="12" rx="3" stroke="white" stroke-width="2"/>
<rect x="59" y="59" width="12" height="12" rx="3" stroke="white" stroke-width="2"/>
<rect x="41" y="59" width="12" height="12" rx="3" stroke="white" stroke-width="2"/>
<defs>
<filter id="filter0_d_1189:8999" x="0" y="0" width="93.9825" height="93.9951" filterUnits="userSpaceOnUse" color-interpolation-filters="sRGB">
<feFlood flood-opacity="0" result="BackgroundImageFix"/>
<feColorMatrix in="SourceAlpha" type="matrix" values="0 0 0 0 0 0 0 0 0 0 0 0 0 0 0 0 0 0 127 0" result="hardAlpha"/>
<feOffset/>
<feGaussianBlur stdDeviation="20"/>
<feColorMatrix type="matrix" values="0 0 0 0 0.188235 0 0 0 0 0.27451 0 0 0 0 0.34902 0 0 0 0.4 0"/>
<feBlend mode="normal" in2="BackgroundImageFix" result="effect1_dropShadow_1189:8999"/>
<feBlend mode="normal" in="SourceGraphic" in2="effect1_dropShadow_1189:8999" result="shape"/>
</filter>
<linearGradient id="paint0_linear_1189:8999" x1="55.8826" y1="20" x2="55.8826" y2="89.7651" gradientUnits="userSpaceOnUse">
<stop stop-color="#FFD640"/>
<stop offset="1" stop-color="#F79219"/>
</linearGradient>
</defs>
</svg>
