<svg width="74" height="96" viewBox="0 0 74 96" fill="none" xmlns="http://www.w3.org/2000/svg">
<rect x="2" y="13" width="69" height="70" rx="20" fill="url(#paint0_linear_1189:8998)"/>
<path d="M53.5476 60.2807V61.3345C53.5476 62.4731 52.6346 63.396 51.5085 63.396H47.1538C44.9288 63.396 43.125 61.5922 43.125 59.3672C43.125 56.0039 47.0026 54.1212 49.6455 56.2013L52.7613 58.6536C53.2575 59.0446 53.5476 59.6449 53.5476 60.2807Z" fill="#F8F8F8"/>
<path d="M20.3359 60.2807V61.3345C20.3359 62.4731 21.249 63.396 22.375 63.396H26.7298C28.9548 63.396 30.7586 61.5922 30.7586 59.3672C30.7586 56.0039 26.881 54.1213 24.2381 56.2014L21.1223 58.6538C20.6261 59.0444 20.3359 59.6447 20.3359 60.2807Z" fill="#F8F8F8"/>
<g filter="url(#filter0_d_1189:8998)">
<path fill-rule="evenodd" clip-rule="evenodd" d="M31.4869 65.6517H42.397C42.7999 65.6517 43.1262 65.3215 43.126 64.9146V43.7508C43.126 39.7352 41.8797 35.7969 39.5236 32.3671L38.6736 31.1296C37.8348 29.9086 36.0488 29.9086 35.2101 31.1296L34.3601 32.3671C32.004 35.7969 30.7578 39.7352 30.7578 43.7508V64.9146C30.7578 65.3217 31.0842 65.6517 31.4869 65.6517ZM35.9992 63.3966H37.8826C38.3804 63.3966 38.7711 62.9646 38.7264 62.4634L37.7848 51.8515C37.7457 51.4098 37.3796 51.0714 36.9409 51.0714C36.5024 51.0714 36.1363 51.4098 36.097 51.8515L35.1553 62.4634C35.1107 62.9646 35.5013 63.3966 35.9992 63.3966Z" fill="#F8F8F8"/>
</g>
<defs>
<filter id="filter0_d_1189:8998" x="0.757812" y="0.213867" width="72.3683" height="95.4375" filterUnits="userSpaceOnUse" color-interpolation-filters="sRGB">
<feFlood flood-opacity="0" result="BackgroundImageFix"/>
<feColorMatrix in="SourceAlpha" type="matrix" values="0 0 0 0 0 0 0 0 0 0 0 0 0 0 0 0 0 0 127 0" result="hardAlpha"/>
<feOffset/>
<feGaussianBlur stdDeviation="15"/>
<feColorMatrix type="matrix" values="0 0 0 0 0.188235 0 0 0 0 0.27451 0 0 0 0 0.34902 0 0 0 0.5 0"/>
<feBlend mode="normal" in2="BackgroundImageFix" result="effect1_dropShadow_1189:8998"/>
<feBlend mode="normal" in="SourceGraphic" in2="effect1_dropShadow_1189:8998" result="shape"/>
</filter>
<linearGradient id="paint0_linear_1189:8998" x1="36.5" y1="13" x2="36.5" y2="83" gradientUnits="userSpaceOnUse">
<stop stop-color="#768B9C"/>
<stop offset="1" stop-color="#768B9C"/>
</linearGradient>
</defs>
</svg>
