<svg width="20" height="20" viewBox="0 0 20 20" fill="none" xmlns="http://www.w3.org/2000/svg">
<path d="M15.7496 9.00046C15.0592 9.00046 14.4996 9.5601 14.4996 10.2505C14.4996 10.9408 15.0592 11.5005 15.7496 11.5005C16.4399 11.5005 16.9996 10.9408 16.9996 10.2505C16.9996 9.5601 16.4399 9.00046 15.7496 9.00046Z" fill="#768B9C"/>
<path fill-rule="evenodd" clip-rule="evenodd" d="M2.17271 6.11578L4.24957 5.88494V1.91348C4.24957 1.27019 4.73963 0.732816 5.38019 0.673687C8.45325 0.390021 11.5459 0.390021 14.619 0.673687C15.2595 0.732816 15.7496 1.27019 15.7496 1.91348V5.88494L17.8265 6.11578C18.5928 6.20096 19.225 6.75438 19.4108 7.50269C19.9766 9.78153 19.9766 12.1642 19.4108 14.443L19.2275 15.1812C19.1445 15.5156 18.8442 15.7505 18.4996 15.7505H15.7496V18.0835C15.7496 18.7055 15.2782 19.2263 14.6593 19.2882C11.5605 19.5981 8.43862 19.5981 5.33989 19.2882C4.72093 19.2263 4.24957 18.7055 4.24957 18.0835V15.7505H1.4996C1.155 15.7505 0.854737 15.5156 0.771699 15.1812L0.588414 14.443C0.0226121 12.1642 0.0226121 9.78153 0.588414 7.50269C0.774209 6.75438 1.4064 6.20096 2.17271 6.11578ZM14.2496 5.74003C11.421 5.50808 8.57816 5.50808 5.74957 5.74003V2.14652C8.5775 1.89908 11.4216 1.89908 14.2496 2.14652V5.74003ZM14.2496 14.5021C14.2477 14.3442 14.1465 14.2082 14.0029 14.1574C11.3393 13.9212 8.65995 13.9212 5.99632 14.1574C5.85135 14.2086 5.7496 14.3467 5.7496 14.5065V15.0005L5.74957 15.0067V17.821C8.57665 18.0872 11.4225 18.0872 14.2496 17.821V14.5021ZM17.913 14.2505H15.7496V13.9175C15.7496 13.2954 15.2782 12.7746 14.6593 12.7127C14.5238 12.6991 14.3884 12.6862 14.2529 12.6738C14.1961 12.6623 14.1383 12.6533 14.0797 12.647C11.3675 12.3548 8.63172 12.3548 5.91949 12.647C5.86087 12.6533 5.80311 12.6623 5.74635 12.6738C5.61082 12.6862 5.47533 12.6991 5.33989 12.7127C4.72093 12.7746 4.24957 13.2954 4.24957 13.9175V14.2505H2.08616L2.04421 14.0815C1.53735 12.0401 1.53735 9.90562 2.04421 7.86415C2.07871 7.72519 2.19611 7.62242 2.33841 7.6066L4.42074 7.37516C8.12856 6.96304 11.8706 6.96304 15.5785 7.37516L17.6608 7.6066C17.8031 7.62242 17.9205 7.72519 17.955 7.86415C18.4619 9.90562 18.4619 12.0401 17.955 14.0815L17.913 14.2505Z" fill="#768B9C"/>
</svg>
