<svg width="21" height="19" viewBox="0 0 21 19" fill="none" xmlns="http://www.w3.org/2000/svg">
<path fill-rule="evenodd" clip-rule="evenodd" d="M10.1192 15.8594C10.2418 15.9329 10.3729 15.9655 10.5003 15.9639C10.6277 15.9655 10.7588 15.9329 10.8815 15.8594L11.9694 15.2066C14.1032 13.9263 16.7127 13.7172 19.0231 14.6414C19.8753 14.9823 20.8024 14.3546 20.8024 13.4367V2.26361C20.8024 1.70974 20.4652 1.21167 19.9509 1.00597C16.9752 -0.184311 13.6142 0.0850019 10.866 1.73393L10.5003 1.95331L10.1347 1.73393C7.38648 0.0850019 4.02541 -0.184311 1.0497 1.00597C0.535451 1.21167 0.198242 1.70974 0.198242 2.26361V13.4367C0.198242 14.3546 1.12533 14.9823 1.9776 14.6414C4.28795 13.7172 6.89749 13.9263 9.03121 15.2066L10.1192 15.8594ZM1.63574 2.31998V13.2323C4.31504 12.228 7.31079 12.4979 9.7708 13.9739L9.78158 13.9804V3.19846L9.3951 2.96657C7.04816 1.55841 4.1814 1.32042 1.63574 2.31998ZM11.2299 13.9739L11.2191 13.9804V3.19846L11.6055 2.96657C13.9525 1.55841 16.8193 1.32042 19.3649 2.31998V13.2323C16.6856 12.228 13.6899 12.4979 11.2299 13.9739Z" fill="#F8F8F8"/>
<path d="M7.88902 16.2487C5.94949 15.1173 3.55116 15.1173 1.61163 16.2487L1.51317 16.3061C1.17029 16.5061 1.05447 16.9462 1.25448 17.2891C1.4545 17.632 1.8946 17.7478 2.23748 17.5478L2.33594 17.4903C3.82789 16.62 5.67276 16.62 7.16471 17.4903L8.20666 18.0981C9.62401 18.9249 11.3766 18.9249 12.794 18.0981L13.8359 17.4903C15.3279 16.62 17.1728 16.62 18.6647 17.4903L18.7632 17.5478C19.106 17.7478 19.5462 17.632 19.7462 17.2891C19.9462 16.9462 19.8304 16.5061 19.4875 16.3061L19.389 16.2487C17.4495 15.1173 15.0512 15.1173 13.1116 16.2487L12.0697 16.8565C11.0999 17.4222 9.90074 17.4222 8.93098 16.8565L7.88902 16.2487Z" fill="#F8F8F8"/>
</svg>
