<svg width="25" height="24" viewBox="0 0 25 24" fill="none" xmlns="http://www.w3.org/2000/svg">
<path fill-rule="evenodd" clip-rule="evenodd" d="M10.625 4.11389C11.2994 2.95162 12.9778 2.95162 13.6523 4.11389L15.7176 7.67325C15.908 8.00133 16.237 8.22522 16.6121 8.28187L20.0417 8.79988C21.5367 9.02568 22.0611 10.9132 20.8969 11.8778L18.398 13.9482C18.0472 14.2387 17.8823 14.6971 17.9675 15.1445L18.6675 18.8205C18.9417 20.2605 17.4301 21.3793 16.133 20.6963L12.721 18.8998C12.3565 18.7078 11.9208 18.7078 11.5562 18.8998L8.14421 20.6963C6.8472 21.3793 5.33557 20.2605 5.60977 18.8205L6.30975 15.1445C6.39495 14.6971 6.23004 14.2387 5.87929 13.9482L3.38039 11.8778C2.21611 10.9132 2.74051 9.02568 4.23551 8.79988L7.66515 8.28187C8.04021 8.22522 8.36926 8.00133 8.55964 7.67325L10.625 4.11389ZM12.3549 4.86672C12.2585 4.70068 12.0187 4.70068 11.9224 4.86672L9.85704 8.42608C9.43822 9.14786 8.71431 9.64042 7.88917 9.76505L4.45952 10.2831C4.24595 10.3153 4.17104 10.585 4.33736 10.7228L6.83626 12.7931C7.6079 13.4324 7.97072 14.4408 7.78328 15.4251L7.08329 19.1011C7.04412 19.3068 7.26007 19.4666 7.44536 19.3691L10.8574 17.5725C11.6594 17.1502 12.6179 17.1502 13.4199 17.5725L16.8319 19.3691C17.0172 19.4666 17.2331 19.3068 17.194 19.1011L16.494 15.4251C16.3065 14.4408 16.6694 13.4324 17.441 12.7931L19.9399 10.7228C20.1062 10.585 20.0313 10.3153 19.8177 10.2831L16.3881 9.76505C15.5629 9.64042 14.839 9.14786 14.4202 8.42608L12.3549 4.86672Z" fill="#27343F"/>
</svg>
