<svg width="10" height="8" viewBox="0 0 10 8" fill="none" xmlns="http://www.w3.org/2000/svg">
<path fill-rule="evenodd" clip-rule="evenodd" d="M3.125 4C3.125 2.96447 3.96447 2.125 5 2.125C6.03553 2.125 6.875 2.96447 6.875 4C6.875 5.03553 6.03553 5.875 5 5.875C3.96447 5.875 3.125 5.03553 3.125 4ZM5 2.875C4.37868 2.875 3.875 3.37868 3.875 4C3.875 4.62132 4.37868 5.125 5 5.125C5.62132 5.125 6.125 4.62132 6.125 4C6.125 3.37868 5.62132 2.875 5 2.875Z" fill="#768b9c"/>
<path fill-rule="evenodd" clip-rule="evenodd" d="M1.16171 3.32318C0.952154 3.62514 0.875 3.86135 0.875 4C0.875 4.13865 0.952154 4.37486 1.16171 4.67682C1.36429 4.96872 1.66539 5.28514 2.04634 5.57752C2.80989 6.16354 3.85673 6.625 5 6.625C6.14327 6.625 7.19011 6.16354 7.95366 5.57752C8.33461 5.28514 8.63571 4.96872 8.83829 4.67682C9.04785 4.37486 9.125 4.13865 9.125 4C9.125 3.86135 9.04785 3.62514 8.83829 3.32318C8.63571 3.03128 8.33461 2.71486 7.95366 2.42248C7.19011 1.83646 6.14327 1.375 5 1.375C3.85673 1.375 2.80989 1.83646 2.04634 2.42248C1.66539 2.71486 1.36429 3.03128 1.16171 3.32318ZM1.5897 1.82752C2.45483 1.16354 3.65799 0.625 5 0.625C6.34201 0.625 7.54517 1.16354 8.4103 1.82752C8.84369 2.16014 9.2016 2.53122 9.45445 2.89557C9.70031 3.24986 9.875 3.63865 9.875 4C9.875 4.36135 9.70031 4.75014 9.45445 5.10443C9.2016 5.46878 8.84369 5.83986 8.4103 6.17248C7.54517 6.83646 6.34201 7.375 5 7.375C3.65799 7.375 2.45483 6.83646 1.5897 6.17248C1.15631 5.83986 0.798404 5.46878 0.545552 5.10443C0.299685 4.75014 0.125 4.36135 0.125 4C0.125 3.63865 0.299685 3.24986 0.545552 2.89557C0.798404 2.53122 1.15631 2.16014 1.5897 1.82752Z" fill="#768b9c"/>
</svg>
