<svg width="81" height="81" viewBox="0 0 81 81" fill="none" xmlns="http://www.w3.org/2000/svg">
<path fill-rule="evenodd" clip-rule="evenodd" d="M51.0871 11.7101C50.6124 11.2354 49.9686 10.9688 49.2973 10.9688C48.6259 10.9688 47.9821 11.2354 47.5074 11.7101L16.4831 42.7344C16.1651 43.0525 15.9375 43.4495 15.8239 43.8846L12.4489 56.8055C12.2218 57.675 12.4727 58.5997 13.1081 59.2351C13.7435 59.8705 14.6682 60.1214 15.5377 59.8943L28.4586 56.5193C28.8938 56.4057 29.2908 56.1781 29.6088 55.8601L60.6331 24.8358C61.6216 23.8473 61.6216 22.2446 60.6331 21.2561L51.0871 11.7101ZM20.5485 45.8285L49.2973 17.0797L55.2635 23.0459L26.5147 51.7947L18.4391 53.9041L20.5485 45.8285Z" fill="#F8F8F8" fill-opacity="0.4"/>
<path d="M13.5 64.9688C12.102 64.9688 10.9688 66.102 10.9688 67.5C10.9688 68.898 12.102 70.0313 13.5 70.0313H64.125C65.523 70.0313 66.6562 68.898 66.6562 67.5C66.6562 66.102 65.523 64.9688 64.125 64.9688H13.5Z" fill="#F8F8F8" fill-opacity="0.4"/>
</svg>
