<svg width="24" height="25" viewBox="0 0 24 25" fill="none" xmlns="http://www.w3.org/2000/svg">
<path d="M10.4645 7.66176C10.8707 7.66176 11.2001 7.99109 11.2001 8.39734V10.1137H12.9164C13.3227 10.1137 13.652 10.443 13.652 10.8493C13.652 11.2555 13.3227 11.5848 12.9164 11.5848H11.2001V13.3012C11.2001 13.7074 10.8707 14.0368 10.4645 14.0368C10.0582 14.0368 9.72892 13.7074 9.72892 13.3012V11.5848H8.01257C7.60632 11.5848 7.27699 11.2555 7.27699 10.8493C7.27699 10.443 7.60632 10.1137 8.01257 10.1137H9.72892V8.39734C9.72892 7.99109 10.0582 7.66176 10.4645 7.66176Z" fill="#F8F8F8"/>
<path fill-rule="evenodd" clip-rule="evenodd" d="M5.75542 15.5025C8.16495 17.9121 11.9698 18.0759 14.5691 15.9941L19.6256 21.0506C19.9128 21.3379 20.3786 21.3379 20.6658 21.0506C20.9531 20.7633 20.9531 20.2976 20.6658 20.0103L15.6093 14.9538C17.6912 12.3545 17.5273 8.54972 15.1178 6.14018C12.5324 3.55484 8.34076 3.55484 5.75542 6.14018C3.17007 8.72553 3.17007 12.9172 5.75542 15.5025ZM6.79568 7.18044C4.78485 9.19127 4.78485 12.4515 6.79568 14.4623C8.80503 16.4716 12.0619 16.4731 14.0731 14.4667L14.0775 14.4623L14.0819 14.4579C16.0883 12.4467 16.0869 9.18979 14.0775 7.18044C12.0667 5.16962 8.8065 5.16962 6.79568 7.18044Z" fill="#F8F8F8"/>
</svg>
